<svg fill-rule="evenodd" stroke-linejoin="round" stroke-miterlimit="2" clip-rule="evenodd" viewBox="0 0 1024 1024" class="fill-current w-32">
  <defs/>
  <path d="M0 0h1024v1024H0z"/>
  <clipPath id="a">
    <path d="M0 0h1024v1024H0z"/>
  </clipPath>
  <g clip-path="url(#a)">
    <path fill-rule="nonzero" d="M504.8 246.9l20.1 16.8c-7.1 4.5-12.8 3-17.8-1.6-4.4-4-6.2-8.8-2.3-15.2"/>
    <path d="M300.4 696.1l8.8-13.2-24-6.4 6.5-10.2c-10.4-.3-21.1.7-26.1-12.2l11.6-5.1-10.7-27.4 2.3-1.9 30.8 13-4.7-13.9c14.3-2.4 18.6 8.7 25 16.7l10.3-23.1c7.4 10.8 1.7 26.1 16.9 31.4l-7.7-20c11.7 2.5 16.6 11.8 23.7 19.8L365 630l2.3-.7 19.3 31.1 5.8-17.6c7.9 9 14.3 17.7 15.4 29 .9 8.9 7.5 8.2 13.1 9 6 .7 8-4 9-8.8.5-3 .9-6.3.5-9.3-2-13.3-4-26.5-6.3-39.7-.8-4.7-2.7-9.2-4-13.9-.6-1.7-1.2-3.5-1.1-5.3 1-14.9 2.7-29.7 3.2-44.6.2-5.2-2.3-10.5-3-13.7l-13.9-10a7.5 7.5 0 00-2.7-1.4c-14.3-2.8-27.3-11.7-42.6-10.2a23 23 0 00-8.8 3c-7.3 4.3-14.5 8.6-21.4 13.4-3.5 2.4-6.5 5.6-9.6 8.7-2.4 2.4-4 6.4-6.7 7.3-8.5 2.7-12.4 9.9-17.9 15.6-3.3 3.5-8.1 5.7-12.3 8.4-.2.2-.5.2-.7.3L255.2 597c-1.1.6-2.2 2.3-3 2.2-9.5-1.4-12.7 6.5-17.9 11.5-1.5 1.4-3.2 3.1-5 3.5-3.7.9-7.5 1-11.3 1.3-.1-3.4-1-7-.2-10.2 1.5-5.8 4.2-11.2 6-17L266 448.8c12.5-41 23-82.8 42.3-121.5a239 239 0 0118.8-32.4 41.8 41.8 0 0144.5-15.2c11 3.3 20.3 9.3 24.3 20.4 10.2 28.6 19.9 57.5 29.7 86.3l2.3 6.9 2.9.6c1.5-3.7 3.2-7.3 4.5-11 1.9-5.4 2.3-11.6 5.4-16 8.4-12.2 18-23.6 27-35.3 4.4-5.5 9.3-10.7 13-16.6 8.3-13.4 6.2-26.6-5.2-37.3-4.2-4-8.4-7.9-12.2-12.2-5.4-6-9.3-12.7-1.7-22.8l-15.4 2.5c-6.3-13.2 2.7-25.8 18.7-24 7 .7 13.5 4.9 20.4 7.1 3.7 1.2 7.8 2.8 11.4 2 6.1-1.1 11.2-.2 16 3.6 8.9 7 17.6 14 26.7 20.5 8 5.8 16.5 11 24.7 16.4 2.2 1.5 4.3 3.3 8.4 6.5-5 1-7.8 2-10.6 2.1-5.3.3-8 2.6-6.4 8l24.3 88c.9 3 2 5.9 2.2 8.9.5 8.1 7.1 12.2 14 7.5 16.6-11 27-26.7 31.6-45.9 3.2-13.1 4.4-26.7 6.5-40a33.5 33.5 0 0149-25.4 62.2 62.2 0 0130.3 34.5c14.3 36 29.2 72 41.7 108.6 9.4 28 15.3 57.3 23 85.9 9.4 35 19.3 69.7 28.5 104.7 1 3.6-.2 10.9-2.1 11.5a21 21 0 01-15.1-.2c-9.4-5-17.7-11.8-26.6-17.4-1.6-1-4.5-1-6.4-.2-6.2 2.2-10.7.5-14.2-4.8-1.9-2.8-4.2-5.3-6-8.2-3.1-5.5-6-10.5-13.7-10.9-2.4-.1-5.4-3.8-7-6.6-2.8-5.2-5-10.8-7-16.5-2.7-7-4.3-13.6-13.6-16.6-9-2.9-10.7-13.3-13-22l-1.3-4.6c-6.9-1.1-16 3.2-18.4-6-4.7.3-8.8.5-13 1-2 .2-4.2.5-6.1 1.4a68.1 68.1 0 00-25.7 19.2c-4 5-10.2 8.4-15.8 11.9-4.2 2.6-5.7 5.5-4.1 10.3 2 6 3.7 12 5.5 18 2.5 8.3 4.4 16.5.5 25.1-1.3 2.9-.3 6.7-.9 10-.7 4.5-2.3 8.9-2.8 13.4-.4 4.8-1 9.9.3 14.4 2.3 8.7 7 17-.4 25.7-1 1.2-.4 4.2.2 6 2.2 7.2 5 14.3 7.2 21.5 1.5 4.8 3.9 6.3 8.6 3.5 10.3-6.2 20.7-12.1 31.7-18.6l-7.9-12.5 42-5.6-26.2 34.4c-2-4.4-3.4-8-5.2-12.1L618.4 697v.6l-.2 1.4v.7c4 1.3 7.9 3.7 12 3.9 13.1.5 26.4.2 40.1.2v-15.3l38 18.6-40.4 14 1.8-12.4h-41.3c-1.2 6 1 9.4 6 11.7 8.2 3.8 16.3 8 25 12.3l4.8-11.9 22.8 30-40.3-2.5 10-11.3-27.9-14.2c-2 7-4.9 11.3-12.8 10.3-2.4-.3-5.1 5-8.2 6-5.4 1.8-12.3.8-16.7 3.7-4.2 2.8-5 10.9-9.3 13.5-7 4.2-15.3 6.3-23.3 8.6a95.7 95.7 0 01-17.5 3c-2.7.3-5.5-1-8.8-1.7-6.6 6.5-8.3 6.6-20.2.5-4.8 7.5-9.8 6.1-14.3-.2-9.9 6.4-13 6-22.7-3-10.3 5-12.8 4.4-20-5.2-11.5 3.5-16.5 1.3-20.8-9.3-15.4.3-20.1-6.2-16.4-21.7 1-4-.4-8.4-.9-14.7-11.4 7-7.7 18-14.3 26.3-2-1.3-6-2.4-7.7-5-2.3-3.7-5.2-3.7-8.5-5-5.6-2-10.3-6.4-16.5-10.5l-12.9 5.2 4-12a24.3 24.3 0 00-22 1.2c-6.3 3.1-14.3 3-23 4.6l8.8-21.4h-24.4zm225 36.6c5.5 7.7 5.2 24.7-.7 34l-.4-8.1s-1.1-.4-.6-.3c-.1-4.5 5.4-9-3.6-11.8l5-.8-3-2.2 3.9-1.5-5.8-1.7 4.1-.8 1.2-6.8zm-36-12c-.2-.1 1 .2 2.8.9l-5.3 1.6 4 1.2c-1.2 1.6-4 4.5-3.8 4.8 4.4 4.8-5 12 2.7 16.1l-6.7 1.5 5.6 1.1c-6.5 4.4-2.7 10.7-3.8 17.1-1-2.7-3.1-5.5-3-8.1.2-10.7.1-21.5 2-31.8 3.4-17.6 8.1-34.9 13-52.1 2.2 16.7-4.8 31.6-7.4 47.6zm15.8 34.6l-1.6 8.2-1.3.6c-1-3.9-3.2-7.8-2.9-11.6a1850 1850 0 015.5-56.6c.5-5 1.9-9.9 2.9-14.8l2.7.4-7.3 56.1 5.1 1.1-5.4 1.6c1.7.6 2.7 1 3.7 1.2l-4.3 10.2 4.5 1-4 1.7 2.4.9zm-31.2-49l5.1 1.3-8.3 1.1 5.4 2-5 1.4 4.5 1.7-6.6 1.6 3.9 1c-1.3 2.6-3.4 5.4-4 8.4-.6 4 0 8.3 0 13 .7-.1-.6.2-2.3.7l4.1 2-5.8 1.3 2.4.9-2.8 18.3c-1-3.9-2.7-6.9-2.5-9.7.5-9.1.8-18.4 3-27.1 5.1-19.4 11.3-38.6 17-57.8l2.6.7-6.2 23.7c-1.4 5.1.1 11-4.5 15.5zm31.2 49c.2 0 .2 0 0 0zm-57-24.7l1.4 8.8-3.4.7 5 1.9-5.5 1.2 1.9 1.1-3 9c-4.3-8.6-2.3-20.6 3.7-22.7zm131.7 21c-1.8-3.6-4-7.1-5.5-10.8-.4-1.2.8-3.1 1.2-4.7 1.1.6 3 1 3.2 2 1.2 4.3 1.8 8.7 2.7 13.1l-1.6.3zm79.7-7.3l7-12c3 3.7 6 7.8 10.3 13.4l-17.3-1.4zm-236.3-2.5c1.2-6.1 2.3-12.3 3.9-18.3.4-1.5 2.5-2.7 4-3.7.4-.2 1.7 1 2.6 1.5-1 1.4-2.2 2.8-2.7 4.3-1.8 5.5-3.3 11-5 16.6l-2.8-.4zM593 704.6c-1 6.7-2.4 11.2-2.2 15.6 0 4.2 1.8 8.4 3.3 14.5-8.4-6.4-11-14.4-8.1-21 6.8-15.4 1.7-28.8-3.5-42.6-.3-1-.3-2-.5-3.3 4.7-3.7 8-2.5 9.6 2.9 2 6.4 3 13 5.2 19.3 1.2 3.8 3 7 7.7 8.7 13.9 5 19.3 13.7 17 27.9-3.6-12-7.9-21-20-23.5-3.3 10.2 1.6 20 3.2 30.8-10.5-7.1-5.8-18.9-11.7-29.3zM524.7 730l-6.9-49.2 3.3-.5 8 49-4.4.7zm-125.9-3.5c-6.6-10.2-4.9-17.2 6.8-31.2-10-2.9-14.5.7-25.9 20.4a26.4 26.4 0 0125.5-29.5c7.5 0 15 1 22.6 2 5.6.8 8.1-1.3 9.1-6.8 1.3-7.3 3.1-14.6 4.9-22.7 4.9 4 9.1 6.5 3.2 12.9-2.4 2.7-.5 9-2.5 12.6-3.7 6.7-1.8 13.3 0 21.3-10.8-5.7-19.4-14.3-31-5.8-9.2 6.7-13.9 15.2-12.7 26.8zm23.8-19.2c1.6-.4 3.3-1.3 4.6-1 11.6 3.5 25.9 12.7 26.7 18.4l-31-14.9-.3-2.5zm273.3-.9l-20.7 7v-17l20.7 10zm-334.1-26.3c-18.6 24.8-22 27.8-34.7 29.4l11.3-11.9a91 91 0 00-.7-1.1l-3.7 1.9a26.8 26.8 0 0127.8-18.3zm96 29.4v-.8l-4.2-1 5.2-5.3-1.4-.6 4.1-7.8.8-.1c-.4-2.6-1.4-4.9-1-6.8.5-2 2.9-3.7 3.3-5.7 1-5.2 1.6-10.5 2.3-15.8l-1.8-.3-15.7 44.2h8.4zM353 704.1c7.8-19.4 14.5-23.9 26-19.5-4 4.6-8 10-13 14.5-3.4 3-7.9 4.9-11.9 7.2l-1.1-2.2zm208.9-17c-3.3 2.6-8 4.8-9 8-.8 2.4 3.5 6.4 5.5 9.7l2.2-1.5-4.9-8.1 8.2-5.4-.4-.7-1-1.4-.5-.7-.1.2zm3.3 10c1.2 2.5 2 4.3 3 6l-1.6 1.5-7-9.3 10.6-4 .9 2.2-6 3.7zm-252.4-6.5c10.8-12.4 19.2-19.2 32.8-17.7l-9.5 6 .2.7 11.7-3.1c-9.4 12.9-22.9 11.3-35.2 14.1zm358-28.2l-13.7 18-8.6-14.7 22.4-3.3zm-375.7 11.1c13.6-11.4 26.6-13.1 36.4-6-6.5 2-13.8 4.7-21.4 6.6-4.8 1.2-9.8 1.2-14.8 1.8l-.2-2.4zm101-22l9.5 24-9.9-2.3c-5.2-10.3-5.4-13.3.3-21.8zm-27.6-8.5c10.5 7.4 13 16 7.3 28.3l-7.3-28.3zm-19-8.5c10.6 9.9 17 21.2 19.7 35.3l-8.3-6.7-.8 1.5-10.7-30.1zm174.3 19.7l.1-.2v.1l-8 15.4-2.4.3-8.1-17.3 1.2-.7 7.8 11.1 10.4-13.8a3151.4 3151.4 0 01-1 5zm.2 0c.5-.2 1-.3 1.1-.2 4.2 6.5 8.6 5.9 14 1l-6.5 12.4h-2.3l-6.3-13.3zM494.5 665l-6.2-12.6c4.8 4.3 9 7.1 14.6.6l-5.4 11.9-3 .1zm100.1-24.9c4.3 11.8 2.8 16.7-5.9 20.6-11.5 5.3-20.6 4-25-3.3 25-.7 28.3-2.8 30.9-17.3zm-155.2 0c1.7 10.3 15.7 14.6 28.2 9-2.7 8.6-5.8 10.4-14.8 8.6-17-3.6-19.6-6.3-18.6-19.7l3.1 7.6c1-2.4 1.4-3.8 2-5.5zm-163.5-11.2l21 10.2-.5 1.5-7.9-1.4-.7 1.2 18.3 13.3c-14.5 4-28.5-7.3-30.2-24.8zm54-4.2l8.2 25.4c-11.2-3.4-13.7-11-8.3-25.4zm177.4 9.2l10.8 4.2-4.9 9.5-5.9-13.7zm-204-11.4c4 6.4 7.8 13 11.7 19.4l-2.3 1.4c-7.8-4.1-11.1-11-11.4-19.6l2-1.2zm176.9 2.9c4.4 5.3 8 8.1 13.9 2.3l-9 12.6-5-14.9zm48.2 1.7l8.2 6.5 7.6-13.7c.4 0 .7.2 1.1.3l-6.8 19.7h-3.1l-8.5-11.6 1.5-1.2zm25-6.3c12 7 12 7 17.9-6.9 0 1.6.5 2.7.2 3.5l-5.9 15.7-12.2-12.3zm-101.5-8.3c5.3 11.2 5.4 11.2 15 7.8l-9.5 10.5-2.3-.7-3.2-17.6zM736 432.7l5.8 11.4 2.3-.8-3.3-25.6 3.3-.4c1.8 8.4 3.2 16.9 5.4 25.2 3.5 13.2 7.6 26.3 11.2 39.5 1.8 6.8 1.2 14.8 4.7 20.5 4.3 7 1.3 14.2 4 21 2.6 6.5 3.4 13.7 5.3 20.5 2.7 10 6 19.7 8.7 29.6.6 2.2 1 4.6.6 6.7-.9 3.9 5 14.7 6.5 14.6l11.7 29.6-12.5-12.1-1.4 8.8c-3.6-5.5-7-9-8.4-13.1-6-17.4-12.4-34.8-17.1-52.6-9.7-36.2-18.4-72.7-27.3-109-1-4.2-1.4-8.5-2-12.8l2.5-1zm-12 6.5c1.4 3.9 2.8 7.7 4 11.6 2.4 8.6 6 17.1 6.5 25.8.5 7.7 4 14.4 4 22.3 0 7.6 4 15.2 6 22.8 3.3 13 6.2 26 9.5 39 1.4 5.7 3.4 11.2 5.3 16.7.3 1 1.4 1.6 2 2.2.6 1.5.9 3.2 1.8 4.4 3 4.3 1.3 10 5 14.4 2.5 3 2.6 8.1 2.9 13.3-3-4.2-7.2-8-8.7-12.7a883.3 883.3 0 01-18.4-59.5c-7.8-30.3-14.4-60.8-21.4-91.3-.7-2.7-.5-5.6-.7-8.5l2.3-.5zm-434-15.1c-.4 3.5-.3 7-1.3 10.4-13.3 46-26.4 92-40.3 137.9-3.1 10-8.6 19.5-13.6 28.9-1.7 3.2-5.4 5.3-7.7 7.4 2.7-6.9 5.1-13.5 8-20 1.4-3.5 3.5-6.7 5.3-10 .4-.8 1.2-1.8 1.1-2.5-.8-5.7 4.1-9 5.6-13.6 2.3-7.6 4.4-15.3 6.6-22.9 1.8-6.4 3.8-12.9 5.4-19.4 1.6-6.5 2.4-13.3 4.2-19.7 2.2-7.5 5.5-14.6 7.6-22 2-7.5 2.7-15.3 4.8-22.7 1.7-5.8 4.9-11.2 7-17 1.7-5 2.8-10.2 4.3-15.3l3 .5zm136.6 178.8l11.1-6 .8.7-12.7 10.8-2.6-1 1.1-13h.9l1.4 8.5zm325.4 4.5c-4-6.1-8.3-10.3-9.8-15.2-5.6-18.1-11-36.4-15-54.8-6.3-28.2-11.5-56.6-17-85-.4-1.6 0-3.3 0-5l2-.6c1 3 2.2 5.8 3 8.7 2.7 10 5.4 20 7.7 30.2 1 4.2.7 8.6 1.6 12.8 1.8 8.6 4.2 17 6 25.7 1.8 9 3.1 18.1 4.6 27.2.8 4.7.9 9.6 2.2 14 1.5 4.6 4 8.8 6.2 13.1 1.2 2.6 3 5 3.6 7.6 1.7 6.1 2.9 12.4 4.9 21.3zm-189-6.6c-2-2.8-4-5.6-5.8-8.4l.7-1 5.7 2.8 4-5.6c.4 0 .8.2 1.2.4l-3.5 11.6-2.3.2zm-51-212.5a94.8 94.8 0 0086.2 17 92.8 92.8 0 017.3 36.2c0 112.6-93.2 157.4-93.2 157.4S419 554.1 419 441.5c0-12.8 2.6-25 7.3-36a94.8 94.8 0 0085.8-17.2zM299.3 442c.9 30.4-36.1 144.3-49.9 154.8 3.8-9.4 6.7-17 10-24.5 2.8-6.6 7.8-13 8.6-19.7 1.6-14 8-26.6 9.8-40.6a105 105 0 014.6-18.1c5-15 8.7-30.4 13.1-45.5.7-2.3 2.5-4.3 3.8-6.4zM457 583.9l10 4.3-6 8.5-4-12.8zm146.4 7.2l-8.3-4.9 2.2-.3 2-15.2c1.4 6.4 2.5 12.2 4 20.4zM315.9 450.8c-14.7 44.6-17.8 93-42 134.5l-4-1.5c3-6.5 6.5-13 9-19.7 3-7.8 5.2-15.9 8-23.8 1.8-5.5 4.3-10.8 5.9-16.3 1.7-6.2 4.7-12.9 3.7-18.7-1.3-7.1 5.8-11.1 4-17.6-.4-1.9 0-4 .1-6 0-.6-.2-1.2 0-1.6 3.4-9 6.8-18 10.5-26.9.5-1.3 1.8-2.2 2.8-3.3l2 .9zm410.9 131.6c-2.6-3.4-6.4-6.4-7.7-10.3-4.4-13.8-9-27.7-11.8-42-4.7-22.6-8-45.6-11.9-68.5-.3-2.1 0-4.4 1.7-7 2.2 5.5 5.3 11 6.4 16.7 1.8 10.2 2.1 20.6 3.5 30.8 1.2 8.6 2.9 17 4.7 25.5 2 10 4.1 20 7 29.8 2.4 8 5.9 15.8 9 23.7l-1 1.3zm-287.6-21.8c4.6 2 2.8 10.4 12.4 6.2L446 576h-2.4l-4.5-15.4zm-151 13.3c8.2-2.8 11.4-10.6 13.5-17.5 9.7-31.6 18.5-63.4 27.4-95.2.4-1.5-1-3.6-2.1-7L312.8 504c-2 22.5-14.7 45.4-24.7 70zm54.5-115.2c-9 31.7-8.2 66.6-29.4 94.5l-2.1-.7c4.3-10.6 10-20.8 12.6-31.8 4-17.2 11.2-33.8 10.3-52-.2-3.6 4-7.4 6-11.1l2.6 1zm338.7-2.8l1.4 5.5c1.2 8.1 2 16.3 3.8 24.4 2.8 13.4 2.8 27.3 7.8 40.3 1.6 4.1 2.6 8.4 4 13.3-10.3-8-21.6-57.5-19.5-82.6l2.5-1zM596.2 517l5.4 21c-6.4-1.7-9.4-10-7.9-20.3l2.5-.7zm-236-37.4c2-4.8 4.2-9.5 6-14.3 1.3-3.4 2.2-7 4.7-10.1.2 1 .7 2 .6 2.8-4 19.7-8 39.4-17.7 57.2a19 19 0 01-9 7.9l3-8.2c-2.6 2.9-6 5.4-7.8 8.8-4.5 7.8-5.5 9.2-11.3 10.2 15.6-24.1 19.1-52.2 27-80.8 5.2 9.2-1.1 16.1-.6 23.2l5 3.3zm55.2 54l8.2-23.4c4.2 7.3 1.6 16.5-8.2 23.5zm190.5-45c1.3 5.4 3 10.8 3.6 16.3.4 3.6 1.6 7 1.2 11.2-.6 4.7 2.2 9.9 3.4 14.4-7-2.5-13.4-27.8-8.2-41.9zm-189 7c4.6 5.4-.5 22.6-10.2 30.3l10.1-30.3zM392 523l13.7-44.7 3.3 1a114 114 0 01-14.3 44.6l-2.7-1zm1.4-52.9c4.5 11-8.6 46.1-19 52l19-52zM623 518.7c-6.6-13.2-7.2-27.3-8-41.5l3-.6 5.7 20.8c-2 1.6-1.1 2 .2 6 1.6 4.7 1.1 10 1.5 15.1l-2.4.2zm-240.3-57.6c1.8 17.3-11.1 53-21.3 57.6 3.9-8.2 8-15 10.2-22.4 2.7-8.9 3.4-18.3 5.5-27.3.5-2.4 3-4.4 5.6-7.9zm291 31.2c-1.5 7.6 1.7 13.7 2.9 20.8-1.8-2.2-4.3-4-5.3-6.5-6.2-15.6-8-32-8.4-48.4l2-1c1.3 2.2 4 4.5 3.8 6.5-1 6.8-1.2 13.1 2.6 19.4 1 1.7-.4 4.8 0 7.1.2 1 2.2 1.8 2.5 2zm-42.5-16.1l6 9.4c-7 1.3 0 6.4-1.2 9.7-.2.7 1.2 7.5 1.3 9.3.3 2.5 1.3 4.9 1.4 7.5-9.5-10.2-8.7-23-10-35.3l2.5-.6zm23.9 33c-10.5-13.4-9.6-29.3-10.3-44.8l2.4-.6c.7 2.4 2 4.8 2 7.2.2 6.6.8 12.8 4.7 18.5 1.4 1.9-1.3 4.9-1.3 7.2.1 4.2 1.6 8.3 2.5 12.5zm-257-53.4h.5l3.3 9.3 5.9-4.6.9.4-6.2 10.3c-1 0-1.9-.2-2.8-.3l-2.7-15 1.2-.1zm249.6-9.1l-1.9 5.4-9.3-5.2-.8 1.3 12 10.7 2.2-1.1.4-4 .8-7.9.3-4-1.9-.3-1.8 5.1zM379 437.9l.5-.2c1 3.9 2.2 7.8 3.5 12.3l7.5-3 1 1.1-10.3 9.2-.7-.3-1.3-.7-.6-.4V438l.4-.1zm291.7 8l-1.6-11.5 1.2-.4 5.7 16.8-2.3 1.8-14.9-13.1 1.1-1.3 10.8 7.7zM353 449.4l5.4-17c.4.2.9.3 1.3.3l-.9 10 9.3-4.7.7 1-13.5 11.9-2.3-1.5zm325.7-12.9l13 8.8 1.2-19.2.8-.2 3.8 24.6c-10.7-.2-14.4-7.6-18.8-14zm-342.3-11.2c.2 5.6.5 11.1 1 18.6l12.6-9c-4 6.5-8 13.3-18.8 14.3l3.8-24 1.4.1zm381.3-2.6l-1.7 20.6-3 .7-9.9-10.7c3.7 0 8.5 1.4 10.2-.3 2.2-2.3 2-7 2.9-10.6l1.5.3zM314 411.9l1.8 23.5 10.6-6.6.9.8-11.9 13.6c-7.1-11-2.9-21.1-1.4-31.3zm419.9-1.7c3.6 8.9 1.2 15.9-8.7 22.9l-5.5-21.6 1-.3 7.5 13 2.7-.3 3-13.7zm-430.1 21.7c-10.3-7.5-12.4-14-8.7-25.4l4.4 16.3 8.1-13.7 1.3.3-5.1 22.5zm340.8-30.4h-1.2l-2 11.3-9.5-3.1-.5 1 3 2.2 6.3 4.3 3 2.1 2.6-1-1.4-16.9h-.3zm-260-6.2c2.3 15.1 2.3 15.1 12.4 14.2l-12 8.2-2.6-1 2.3-21.4zm269 8l7.2 1.9-.9-9.6 1-.4 6.3 16.9-2 2-12.3-9.7.7-1zm-284.7-9.6l-1 10.6 6.8-2.7.7.6-11.3 10.8-2.5-1.6 6-17.7h1.3zM683.3 404v-16.6l1.2-.2 4.1 25.8c-11.8-2.2-16.2-10-20.9-17.6l13.6 10.1 2-1.5zm-322.4-10.3c-4.5 7.5-8.7 15.4-20.2 17.6l2.2-20.6 1.7.1 1.4 14 15-11zm344.3-7.6l-2.4 12-10-8.5-1 .7 10.4 15.8 3.6-.6.6-5.6 1.2-11.4.7-5.7-2.4-.3-.7 3.6zm-377.5 8.8l7.8-6 1 .5-10.3 16.1c-8.1-11.5-4.5-22.3-2.9-32.9l1.8 21.7 2.6.6zm147 6l-1.7-10c13.4 6.9 12.5-8.6 20.8-10.9-5 8.1-8.6 16.4-19.1 20.9zm51.3-15.4l-.8 1.1 4 3.3 8.2 6.5 4.1 3.2 3-1.8-1-13.4h-1.2l-2 11-13.4-11-.9 1zm195.4 3l-8-14 1.2-.8 8.8 7.9 2.2-14 1.6.2-2 20.2-3.8.4zm-405.2-17l-9.1 16c-6.8-7-6-14.2-4.4-22.6l3.5 12.8 2.3 1 5.8-9.2 1.9 2zm324.3 9.9c9.7-.3 9.7-.3 12-15.3.5 2.2 1.5 4.4 1.4 6.6-.2 4.1-1 8.3-1.7 12.4l-11.7-3.7zM377 363.3c3 16.5 3 16.5 14.3 16.6-5 1.2-12.1 5-14.4 3-5.6-4.8-2.1-12 0-19.6zm70.7 6.7l28.8-38.6c2.9-3.8 6-7.3 8.8-11a32.6 32.6 0 00-5.8-48.2 50.3 50.3 0 01-12.2-13.1l18.7 3.8c-9.5-11.8-15.8-26.7-33.2-27.7 2.5-7.2 7.5-10 14-7.9 4.3 1.4 8.3 3.4 12.2 5.4 6 3 11.5 6 18.9 2.4 5.1-2.5 8.9 1.2 12.5 6 5.2 7.2 11.4 16.6 18.9 18.5 9.2 2.3 14.6 8.7 23.7 12.6-7.1 2.1-6.4 5.6-5.1 10.7 4.7 18.7 8.3 37.6 12.7 56.3 2.4 10.1 5.4 20 6.7 30.7L553 350.7l-5.2 16.3-7-13.1-4.2 18.8-1 .3-4-17.5-4.9.9-2.8-10-8.4 10.3-2.4-.4c-.6-10.8-1-21.7-1.9-32.5-.2-2.3-1.6-4.5-3.2-8.7-3.4 15.2 4.9 30.2-7 42.4l-3.2-3.9-7 7.4-2-10.4-15 16.7-1.3-9.3-23 12.8-1.7-.8zm227.4-3l-1.5 1-.7.4-13.7-8.6 1.1-1.8 10.9 4.6v-32.7h2.1l2.5 36.7-.7.4zm-318.4-40.6v20.3c.1 12.5.2 12.5 12.8 11l-13 9.2-3.3-1.6 2-38.8 1.5-.1zm337.4-3c.5 12.4 3.8 25.1-3.1 39.1l-9.6-12.4c10.2 1.6 10.4 1.6 11.4-7.6.7-6.3 1-12.8 1.3-19.1zm-356.3 27.1l9.9-2.5-9.6 12.7c-7.3-13-3.7-25.2-3.5-37l3.2 26.8zm299-.6c2 1 3.8 2 6.8 3.8l.8-11.4h1v16.6l-2.1.9-7.2-9 .8-1zm-230-1.2l-6.8 9.1-2.3-.5v-17.5h1.1l.5 11.4 7.5-2.5zM715 333l-2.7 21.1-3 .4-5.4-8c6.7.1 6.7.1 11-13.5zM324.6 345l-5 8.6c-6.7-7.2-6-14.5-4.4-22.2 3.9 4-3.7 14.4 9.4 13.6zm60.3-30v-.2l2.7 12.1 6.2-3.2 1 .7c-1.7 2.4-3 5-5.1 6.8-.8.7-4.9-.8-5-1.8-1-4.6-1.1-9.4.2-14.4zm266.3-3.4h.3c0 3.9.3 7.8-.2 11.7-.3 2-2.1 3.8-3.3 5.7-1.8-1.2-4-2-5.3-3.6-1.6-2-2.4-4.4-4.1-7.8l9.6 6 2.2-12h.8zm-275.4-5.3l7.2-4.1 1 1-9.4 8.4-2.3-1.5 1.5-14.8h1.4l.6 11zm284.4.7l-8.6-7.4.8-1.3 6.5 3 .9-10.2 1.3-.2 1.7 14.6-2.6 1.5zm-303.7-15l1.8 8.1 7.3-5 1.4 1.8-10 7.1-2.6-11.8 2.1-.3zm312.2-1.3c5.4 4 9.5 5.1 9.6-3.7l2.2 1.4-2.8 11.1-9.4-6.4.4-2.4z"/>
    <clipPath id="b">
      <path d="M597.5 477c-9.6 49-41.8 93.5-85 117l-6.6-3.9c-40-25-69.3-66.9-78.3-113.1h170z"/>
    </clipPath>
    <g clip-path="url(#b)">
      <path d="M426 470.3h16v143h-16zM583 470.3h16v143h-16zM551.6 470.3h16v143h-16zM520.2 470.3h16v143h-16zM488.8 470.3h16v143h-16zM457.4 470.3h16v143h-16z"/>
    </g>
    <path d="M597.5 477h-170l-1.2-6.8c-3-19.6-3.4-39.8 3.3-58h.1a102 102 0 0082.8-16.8c23.1 17 54.6 23.6 83 16.6 6.7 18.5 6.2 38.6 3.2 58.2l-1.2 6.8zM437 447.5l2.7 8.3h8.8l-7.1 5.1 2.7 8.3-7-5.1-7.1 5.1 2.7-8.3-7-5.1h8.6l2.7-8.3zm37.8 0l2.7 8.3h8.7l-7 5.1 2.6 8.3-7-5.1-7 5.1 2.6-8.3-7-5.1h8.7l2.7-8.3zm37.7 0l2.7 8.3h8.8l-7.1 5.1 2.7 8.3-7-5.1-7.1 5.1 2.7-8.3-7-5.1h8.6l2.7-8.3zm75.5 0l2.7 8.3h8.8l-7.1 5.1 2.7 8.3-7-5.1-7.1 5.1 2.7-8.3-7-5.1h8.6l2.7-8.3zm-37.7 0l2.7 8.3h8.7l-7 5.1 2.6 8.3-7-5.1-7 5.1 2.6-8.3-7-5.1h8.7l2.7-8.3zm-113.3-22l2.7 8.3h8.8l-7.1 5.1 2.7 8.3-7-5.1-7.1 5.1 2.7-8.3-7-5.1h8.6l2.7-8.3zm37.8 0l2.7 8.3h8.7l-7 5.1 2.6 8.3-7-5.1-7 5.1 2.6-8.3-7-5.1h8.7l2.7-8.3zm37.7 0l2.7 8.3h8.8l-7.1 5.1 2.7 8.3-7-5.1-7.1 5.1 2.7-8.3-7-5.1h8.6l2.7-8.3zm75.5 0l2.7 8.3h8.8l-7.1 5.1 2.7 8.3-7-5.1-7.1 5.1 2.7-8.3-7-5.1h8.6l2.7-8.3zm-37.7 0l2.7 8.3h8.7l-7 5.1 2.6 8.3-7-5.1-7 5.1 2.6-8.3-7-5.1h8.7l2.7-8.3zm-37.8-22l2.7 8.3h8.8l-7.1 5.1 2.7 8.3-7-5.1-7.1 5.1 2.7-8.3-7-5.1h8.6l2.7-8.3z"/>
    <g fill-rule="nonzero">
      <path d="M227.4 779.2l24.3 20.7-2.8 3.3a16.4 16.4 0 00-5.1-3.3 4.3 4.3 0 00-3.5.2c-1 .5-2 1.5-3.2 2.9l-25.8 30.3 51.7-23.8 2.2 1.9-15 55 24.6-28.8c1.3-1.5 2.2-2.7 2.8-3.6.6-.9.9-1.8 1-2.8 0-1-.4-2-1-3-.8-1-2-2.4-3.7-3.8l2.8-3.3 18 15.3-2.9 3.2a18.8 18.8 0 00-4.3-3 5 5 0 00-3.2-.4c-.9.2-1.7.7-2.5 1.4s-1.8 1.9-3 3.4l-23.4 27.4a28 28 0 00-3.4 4.7 4 4 0 000 3.6 16 16 0 004.3 4.8l-2.8 3.3-17.7-15 13-47.9-45.2 20.5-17.4-14.7 2.8-3.3c3 2.5 5.3 3.7 7 3.6 1.5-.1 3.2-1.2 5-3.3l25.8-30.4c1.1-1.4 1.9-2.5 2.3-3.6.4-1 .3-2.2-.4-3.5-.7-1.4-2-3-4-4.7l2.7-3.3zM205.1 749.9l20.8 24.6-3.2 2.8c-1.8-2-3.3-3.4-4.6-4.1-1.3-.8-2.4-1-3.5-.6a12 12 0 00-3.8 2.4l-30.5 25.7c-2 1.8-3.2 3.5-3.3 5-.1 1.7 1.1 4 3.7 7l-3.3 2.9-20.8-24.7 3.3-2.8c1.7 2 3.2 3.5 4.5 4.2 1.3.7 2.5.9 3.5.5 1-.3 2.3-1 3.8-2.3l30.5-25.8a12 12 0 002.9-3.2c.5-1 .5-2.2.1-3.5a17 17 0 00-3.4-5.3l3.3-2.8zM160.2 716.4c1.6-1.1 3.6-2 5.9-2.4a22 22 0 017.4-.3 19.5 19.5 0 0114.2 9.1c1.8 2.8 3 6 3.7 9.6a22 22 0 01-.8 10.7c2.4-.4 4.6-1 6.4-2l2.4 3.7-18.2 12-2.4-3.7a43 43 0 005.6-7.5c1.5-2.7 2.4-5.6 2.7-8.8.3-3.2-.6-6.3-2.6-9.4a11 11 0 00-6.4-4.9 8.6 8.6 0 00-7.1 1.2 8.3 8.3 0 00-4 6.8c0 1.4 0 3.2.2 5.4l1 7.3c.6 4.2.9 7.9.7 11-.2 3-.7 5.6-1.4 7.6a16 16 0 01-14.5 10.8c-3.2.3-6.3-.4-9.4-1.8a19.6 19.6 0 01-7.9-7.1 18.9 18.9 0 01-3-8.2c-.4-3-.1-6 .7-8.9-1.4.3-3.2.9-5.4 1.8l-2.5-3.7 14.8-9.7 2.5 3.6c-6.4 8-7.4 15.2-3.2 21.6a10 10 0 005.6 4.5c2.2.6 4.3.2 6.2-1 1.6-1 2.6-2.4 3.2-4 .5-1.7.7-3.5.6-5.5L154 745c-.7-5.1-1.1-9.2-1.2-12.3-.1-3.1.4-6.1 1.4-9 1-2.9 3-5.3 6-7.2zM134.7 664.5c1.8-.8 3.9-1.3 6.2-1.5a22 22 0 017.4.8 19.5 19.5 0 0112.8 11c1.4 3 2.2 6.4 2.2 10a22 22 0 01-2.3 10.5c2.5 0 4.8-.4 6.7-1l1.8 3.9-19.7 9.3-1.8-4a43 43 0 006.6-6.6c1.9-2.4 3.2-5.2 4-8.3.6-3.1.2-6.3-1.4-9.7a11 11 0 00-5.6-5.8c-2.4-1-4.8-.9-7.2.3a8.3 8.3 0 00-4.8 6c-.3 1.5-.6 3.3-.6 5.5v7.4c0 4.2-.4 7.9-1 10.9s-1.4 5.4-2.5 7.3c-1 2-2.1 3.4-3.3 4.5-1.2 1.1-2.6 2-4 2.7a18 18 0 01-17.6-1.7c-2.9-1.9-5.1-4.6-6.8-8.1a19 19 0 01-1.8-8.5c0-3 .7-6 2-8.7-1.5 0-3.3.4-5.7 1l-1.9-4 16-7.6 2 4c-7.5 7-9.5 14-6.2 21a10 10 0 004.9 5.1c2 1 4.2.9 6.3-.1 1.6-.8 2.9-2 3.6-3.5.8-1.5 1.3-3.3 1.4-5.3l.2-9.4c0-5.2.2-9.3.5-12.4.4-3 1.3-6 2.7-8.7 1.5-2.7 3.8-4.8 7-6.3zM139 620.5l10.4 30.6-4.1 1.4c-.9-2.6-1.8-4.4-2.7-5.5-1-1.2-2-1.8-3-1.9a12 12 0 00-4.4.8l-37.9 12.8c-2.6.9-4.2 2-5 3.5-.7 1.4-.4 4 1 7.8l-4.2 1.4-10.3-30.6 4.1-1.3c.9 2.5 1.8 4.3 2.7 5.5 1 1.1 2 1.7 3 1.8 1.2 0 2.6-.2 4.4-.8l37.9-12.8a12 12 0 003.8-1.9c.9-.7 1.3-1.8 1.5-3.2a17 17 0 00-1.2-6.2l4-1.4zM109.6 572.7c2-.4 4.1-.4 6.4 0a22 22 0 017 2.4 19.5 19.5 0 019.8 13.8c.7 3.3.7 6.7 0 10.3a22 22 0 01-4.8 9.6c2.5.5 4.7.7 6.7.6l.9 4.2-21.3 4.4-1-4.2c3-1.4 5.6-3 8-5 2.5-1.9 4.4-4.3 5.8-7.1 1.5-2.9 1.8-6.1 1-9.7a11 11 0 00-4-7 8.6 8.6 0 00-7.1-1.4 8.3 8.3 0 00-6.1 4.8c-.7 1.3-1.3 3-1.9 5a132 132 0 00-1.8 7.3c-1 4.1-2.1 7.6-3.4 10.4-1.3 2.7-2.7 5-4.1 6.5a16 16 0 01-8.8 5.3 18.1 18.1 0 01-16.7-5.7 19.6 19.6 0 01-4.7-9.6c-.7-2.9-.6-5.8.2-8.7.7-2.9 2-5.5 3.9-8-1.4-.2-3.3-.3-5.7-.3l-1-4.3 17.4-3.6 1 4.3c-8.9 5-12.5 11.3-11 19a10 10 0 003.6 6 7.3 7.3 0 006.2 1.4 7.6 7.6 0 004.3-2.5c1.2-1.3 2-3 2.6-4.8l2.4-9.1c1.2-5 2.3-9 3.4-12 1-2.9 2.6-5.5 4.6-7.8 2-2.3 4.8-3.8 8.2-4.5zM105.2 515.1a22 22 0 0112.9 4.3 19.5 19.5 0 017.7 15c.2 3.4-.3 6.8-1.6 10.2a22 22 0 01-6 8.8c2.4.9 4.6 1.4 6.5 1.6l.3 4.3-21.7 1.3-.3-4.3c3.1-1 6-2.2 8.6-3.8 2.7-1.5 5-3.6 6.8-6.2 1.8-2.7 2.6-5.8 2.3-9.5a11 11 0 00-3-7.4 8.6 8.6 0 00-6.8-2.5 8.3 8.3 0 00-6.8 3.9 131 131 0 00-5.4 11.7c-1.5 3.9-3.1 7.2-4.8 9.7a26.5 26.5 0 01-5 6 16 16 0 01-9.5 4 18 18 0 01-15.7-8c-2-3-3-6.3-3.3-10.2a19 19 0 011.5-8.6c1.1-2.7 2.8-5.2 5-7.3-1.4-.5-3.2-.9-5.6-1.2l-.3-4.4 17.7-1.1.3 4.4c-9.5 3.7-14 9.4-13.5 17.2.2 2.8 1 5 2.7 6.6a7.3 7.3 0 005.9 2.2c1.8-.1 3.4-.8 4.7-1.9 1.2-1.1 2.3-2.6 3.2-4.4l3.6-8.7c2-4.8 3.6-8.6 5-11.3 1.5-2.7 3.4-5 5.8-7 2.3-2 5.3-3.1 8.8-3.4zM125.3 475.8l-1.6 32.2-4.3-.2c.1-2.7 0-4.8-.5-6.2-.4-1.4-1.1-2.3-2.2-2.8a12 12 0 00-4.3-.8l-40-2c-2.7-.2-4.6.3-5.8 1.4-1.2 1-1.9 3.6-2 7.6l-4.4-.3 1.7-32.2 4.3.3c-.2 2.6 0 4.7.4 6 .5 1.5 1.2 2.4 2.2 2.9 1 .5 2.5.8 4.4.9l39.9 2c1.8 0 3.2 0 4.3-.4 1-.3 1.8-1.2 2.5-2.5a17 17 0 001.1-6.1l4.3.2zM89.1 407.2c5.2 1 8.8 3.2 10.9 6.8 2 3.7 3.1 7.7 3.1 12.2 0 4.4-.4 9-1.3 13.7l-.7 4.2 16.3 2.9c1.9.3 3.3.4 4.4.1 1.1-.2 2-.9 2.8-2.1.7-1.3 1.4-3.2 1.9-6l4.2.8-5.6 31.5-4.3-.8c.5-2.6.6-4.7.3-6-.4-1.4-1-2.4-2-3-.9-.5-2.3-1-4-1.3l-39.5-7c-1.8-.4-3.3-.4-4.3-.2s-2 .8-2.8 2c-.8 1.2-1.5 3.2-2 5.8l-4.3-.7 2.8-18a157 157 0 015-22.4c1.1-3.3 3.3-6.4 6.5-9.4s7.4-4 12.6-3zm-2.4 14.2c-5-.9-8.6 0-10.8 2.6a23.2 23.2 0 00-4.5 11l-.6 3.6 25.2 4.5.7-4.2a23 23 0 00-.3-11.4c-1.1-3-4.3-5.1-9.7-6zM111.3 341.2c4.9 1.7 8.1 4.5 9.6 8.4 1.5 4 1.8 8.1 1.1 12.5s-1.9 8.8-3.5 13.4l-1.4 4 15.7 5.4c1.8.7 3.2 1 4.3 1 1.1-.1 2.1-.7 3-1.8 1-1 2-3 2.9-5.5l4 1.4-10.6 30.2-4-1.5a16 16 0 001.2-6c-.1-1.3-.6-2.4-1.4-3.1-.9-.7-2.2-1.4-3.9-2l-37.8-13.3c-1.7-.6-3.1-.9-4.2-.9s-2.1.6-3.1 1.6-2 2.9-2.8 5.5l-4.2-1.5 5.6-17.3a151.4 151.4 0 018.5-21.3c1.7-3 4.3-5.8 8-8.2 3.6-2.5 8-2.8 13-1zm-4.7 13.6c-4.8-1.7-8.5-1.4-11 .8a23.2 23.2 0 00-6.3 10.2l-1.2 3.4 24.1 8.5 1.5-4a23 23 0 001.4-11.4c-.5-3.2-3.4-5.7-8.5-7.5zM172.2 323.9l-14.4 28.8-3.9-2c1.2-2.3 2-4.2 2-5.7.2-1.5 0-2.6-.8-3.5a12 12 0 00-3.7-2.5l-35.6-18c-2.5-1.2-4.5-1.5-6-1s-3.2 2.6-5 6.1l-3.8-1.9 14.4-28.8 3.9 2a17.8 17.8 0 00-2 5.7c-.2 1.5.1 2.6.8 3.5.8.8 2 1.6 3.7 2.5l35.7 18c1.6.7 3 1.2 4 1.3 1.2 0 2.3-.3 3.4-1.3a17 17 0 003.5-5.1l3.8 1.9zM203 226.8c3.6 2.9 6.4 6 8.3 9.6a28.7 28.7 0 013 20.1c-1.5 6.3-5 12.8-10.3 19.6l-18 22.8-3.3-2.7c1.6-2 2.7-3.8 3.1-5.2.5-1.4.4-2.6-.1-3.6-.6-1-1.6-2-3.1-3.2L151 259.4c-2.1-1.7-4-2.5-5.6-2.3-1.5.2-3.6 1.9-6 5l-3.5-2.7 8.2-10.9a588 588 0 007-9.1c3.2-4.1 6.1-7.4 8.8-10 2.7-2.5 5.5-4.5 8.4-6.1 2.6-1.5 5.4-2.6 8.4-3.2a30 30 0 0118 1.9c3 1.2 5.7 2.8 8.3 4.8zm-9.6 11.8c-5.2-4-10.3-6.5-15.4-7.3a20.2 20.2 0 00-18.4 6.2c-1.5 1.5-3.4 3.8-5.8 7l35 27.5c2 1.6 3.6 2.7 4.7 3.2 1 .5 2.2.5 3.5 0 1.2-.7 2.6-2 4.2-4 4.7-6 6-11.8 3.7-17.6-2.2-5.7-6-10.7-11.5-15zM261.3 187.8l13.5 16-42.2 37.6-3-3.2c3-2.6 4.5-4.7 4.6-6.3 0-1.6-.8-3.4-2.6-5.4L205 196.7a13.2 13.2 0 00-3.2-2.8c-1-.6-2.1-.6-3.5-.1-1.4.4-3.1 1.6-5.2 3.4l-2.9-3.2 39.4-35.1 11.6 11.7-3.2 3a22 22 0 00-7.7-3.7c-2-.3-3.7-.1-5.2.7-1.4.7-3.3 2.2-5.6 4.3l-8.9 8 15 16.7 4.8-4.3c1.6-1.5 2.7-2.8 3.3-3.8.6-1 .6-2 .2-3.2-.4-1-1.3-2.6-2.7-4.4l3.3-3 14 15.8-3.1 2.8c-1.7-1.6-3-2.7-4.2-3.2a4 4 0 00-3.2 0c-1 .3-2.4 1.3-4 2.8l-5 4.3 10 11.2a57 57 0 003.8 4 6 6 0 002.6 1.5c1 .2 2 0 3.1-.6 1.2-.5 2.6-1.6 4.3-3.1l3.8-3.4c1.6-1.4 3-3 4-4.7 1.2-1.7 1.7-4 1.6-7a22 22 0 00-4.2-10.6l3.3-3zM303 129.9c2.7 4.4 3.5 8.6 2.2 12.6-1.2 4-3.5 7.5-6.7 10.5-3.3 3-7 5.8-11 8.3l-3.6 2.3 9 14c1 1.6 1.9 2.7 2.8 3.3.9.7 2 .9 3.4.6 1.5-.3 3.3-1.1 5.7-2.6l2.3 3.6-27 17.2-2.3-3.6a16 16 0 004.6-4c.8-1.2 1-2.3.9-3.4-.3-1-.9-2.3-1.8-3.9L259.9 151c-1-1.6-1.9-2.6-2.7-3.3-.9-.7-2-.9-3.5-.7-1.4.3-3.2 1.1-5.5 2.6l-2.4-3.8 15-10.1a161 161 0 0120-11.5c3.1-1.3 7-1.9 11.3-1.6 4.4.3 8 2.8 10.8 7.3zm-12.2 7.8c-2.7-4.3-5.8-6.3-9.2-6.2-3.4.2-7.1 1.5-11.2 4.1l-3 2 13.7 21.6 3.6-2.3c4-2.5 6.6-5.1 8.2-8 1.5-2.9.8-6.6-2-11.2zM390.4 142l-27.6 11.8-1.7-4c2.4-1 4-1.9 5-2.7.8-.8 1-1.8.5-3-.4-.9-.9-1.7-1.6-2.4l-5.7-5.7-19 8 .2 4.4c0 2.5.3 4.2.7 5.1.8 1.8 1.9 2.6 3.4 2.5 1.6-.1 3.2-.6 5-1.3l1.7 4-20.2 8.5-1.6-4a9.3 9.3 0 003.7-2.6 10 10 0 001.7-4.8c.3-2.1.4-5 .3-8.6L333.3 96l4.1-1.7 37.2 38a87 87 0 005.6 5.3 7 7 0 003.6 1.6c1.3.1 3-.2 4.9-1l1.7 4zm-34.5-9.6l-16.7-17 1 23.7 15.7-6.7zM460.7 125.8l-16.6 3.7a97.7 97.7 0 01-10.5-10l-5.8-6a60 60 0 00-5.7-5.4 6.5 6.5 0 00-3.8-1.4 29 29 0 00-6.4 1l-2.3.4 3.6 16.2c.4 1.7.9 3 1.5 4s1.6 1.6 3.1 1.8c1.5.3 3.5.1 6.1-.5l1 4.2-31.2 7-.9-4.2c3.8-.9 6.1-2 7-3.3.8-1.3.9-3.4.3-6L391.3 88c-.5-2.7-1.5-4.4-2.8-5.3-1.3-.9-3.9-.9-7.7 0l-1-4.3 14.3-3.7a112.1 112.1 0 0112.4-2.9c3.1-.6 6-1 8.8-1.3 2.7-.4 5-.5 6.6-.4 2.4 0 4.8.5 7.1 1.4A15.1 15.1 0 01439 83a14.3 14.3 0 01-3.2 12.5c-1.6 2-4 3.8-7 5.4 2.5.8 4.7 2 6.7 3.6s5.2 4.6 9.7 9c2.6 2.6 4.7 4.5 6.3 5.7 1.6 1.2 3 2 4.1 2.3 1.2.3 2.6.3 4.2.1l1 4.2zm-35.9-39.7c-1.1-5-3.3-8-6.7-8.9-3.4-1-7.5-.8-12.3.2l-2.9.7 5.6 25 2.9-.7c4.6-1 8.3-2.6 11-4.8 2.8-2.2 3.6-6 2.4-11.5zM524.2 77.5l-4.4.2c-.6-3.9-1.6-6.8-3-8.6a8.3 8.3 0 00-4.4-3.2c-1.6-.4-3.4-.6-5.4-.5l-8 .4 2 46.5c.1 1.8.3 3.2.8 4.2.4 1 1.3 1.8 2.7 2.3 1.4.5 3.4.7 6 .6l.3 4.3-31.9 1.4-.2-4.3c4-.2 6.4-.9 7.5-2 1-1.2 1.5-3.2 1.4-6l-2-46.4-6.7.3c-2.7 0-4.9.4-6.6.9a8 8 0 00-4.5 3.6c-1.2 2-1.9 5-1.9 8.9l-4.4.2-.8-18 62.7-2.8.8 18zM618.5 136.2l-31.5-5.1.7-4.3c2.7.5 4.8.5 6.1.2 1.4-.4 2.3-1 2.9-2 .5-1 1-2.3 1.3-4.1l6.4-39.3-32 47-2.9-.4L554 73.3l-6.1 37.3c-.4 2-.5 3.5-.6 4.6 0 1 .2 2 .7 2.9.4.8 1.2 1.5 2.4 2 1.2.6 2.9 1 5 1.4l-.6 4.3-23.3-3.8.7-4.3c2.2.4 4 .5 5.3.3a5 5 0 003-1.2c.6-.7 1-1.5 1.4-2.5l.9-4.5 5.8-35.5c.4-2.7.6-4.6.5-5.8a4 4 0 00-1.8-3 16 16 0 00-6.2-2l.7-4.3 23 3.8 13.5 47.7 28.1-40.9 22.4 3.7-.6 4.2c-3.9-.6-6.5-.4-7.8.5-1.3 1-2.2 2.8-2.6 5.4l-6.5 39.5c-.2 1.6-.3 3 0 4.2.1 1 .8 2 2 2.8 1.3.8 3.3 1.4 6 1.9l-.7 4.2zM683.6 139.7l-7.9 19.4-52.9-20.1 1.5-4c3.7 1.3 6.2 1.7 7.7 1 1.4-.6 2.7-2.2 3.6-4.8L649.8 94c.6-1.7 1-3.1 1-4.2 0-1-.5-2.1-1.5-3.1s-2.9-2-5.5-3l1.6-4 49.3 18.7-5.1 15.7-4-1.5a22 22 0 00-.4-8.6c-.6-1.9-1.6-3.3-3-4.2-1.3-.9-3.4-2-6.4-3l-11.1-4.3-8 21 6 2.3c2.1.8 3.8 1.2 5 1.3 1 0 2-.4 2.9-1.3.8-.9 1.6-2.4 2.6-4.5l4.2 1.6-7.5 19.7-4-1.5c.7-2.2 1-4 1-5.2a4 4 0 00-1.5-2.9c-.8-.7-2.3-1.5-4.4-2.3l-6.1-2.3-5.3 14a57 57 0 00-1.8 5.2 6 6 0 000 3c.1 1 .8 1.8 1.8 2.5 1 .8 2.6 1.6 4.8 2.4l4.7 1.8c2 .8 4 1.2 6.1 1.4 2 .2 4.3-.4 6.9-1.9 2.5-1.4 5-4.3 7.4-8.6l4.1 1.6zM771.6 146.2a16.7 16.7 0 00-6-2.5c-1.5-.2-2.6.2-3.5 1-.9.9-2 2.5-3.4 4.8l-26 43.2-3.6-2.3-10.2-63.7-18 30c-1.4 2.3-2.3 4-2.6 5.2-.4 1.2-.1 2.4.7 3.7.8 1.2 2.5 2.6 5 4.1l-2.1 3.7-20.3-12.1 2.2-3.7c2.5 1.4 4.4 2.2 5.8 2.3 1.4.1 2.5-.3 3.4-1.2.9-.8 2-2.4 3.4-4.7l16.7-27.8c1.3-2.3 2.3-4 2.8-5.2.6-1.2.9-2.3 1-3.4 0-1.2-.3-2.3-1-3.4-.8-1.2-2-2.4-3.7-3.7l2.2-3.7 15.9 9.6 9 55.2 15-24.8c1.2-2 2-3.7 2.3-5 .4-1.2.2-2.5-.5-3.7-.8-1.3-2.4-2.6-4.8-4l2.2-3.8 20.4 12.2-2.3 3.7zM821.7 207.1l-3.4-2.9c2.3-3.2 3.6-6 3.9-8.3.2-2.3-.1-4-1-5.4-.8-1.3-2-2.7-3.5-4l-6-5.3-30.8 35c-1.2 1.3-2 2.5-2.4 3.5-.4 1-.3 2.2.4 3.5.6 1.4 2 3 4 4.7L780 231l-24-21 3-3.3c2.9 2.6 5.1 3.8 6.7 3.7 1.6 0 3.3-1.2 5.1-3.2l30.8-35-5.1-4.4c-2-1.8-3.8-3-5.4-4a8 8 0 00-5.7-.4c-2.3.6-4.8 2.3-7.5 5.1l-3.4-3 12-13.5 47.1 41.5-12 13.5zM879 305c-4.8 3.3-10 5.3-15.8 5.8-5.7.6-11.3-.5-16.9-3.2a38.2 38.2 0 01-14.5-13.2c-3.4-5-5.6-9.9-6.6-14.7a30.8 30.8 0 015.4-25 34.4 34.4 0 0124-14c5.6-.7 11.2.3 16.7 3 5.6 2.7 10.5 7.1 14.7 13.2 3.8 5.6 6.1 11 7 16.2a30 30 0 01-6.3 24.6 36 36 0 01-7.7 7.4zm-8.4-12.6c2.9-2 5.5-4.1 7.8-6.4 2.3-2.3 4-4.8 5.3-7.6a17 17 0 001.6-8.6c-.3-3-1.5-6.2-3.7-9.4-3-4.5-6.5-7.2-10.4-8.2-4-1-7.8-.8-11.7.6a50.6 50.6 0 00-18.3 11.1 31 31 0 00-5.8 7c-1.8 2.8-2.7 6-2.7 9.5s1.2 7.1 3.7 11a18 18 0 008.9 7.2c3.3 1.2 6.6 1.4 9.8.8a32 32 0 008.6-3c2.5-1.2 4.8-2.6 6.9-4zM919.9 358.1l-1.8-4c2.9-2.1 4.8-4.1 5.7-6 1-1.8 1.3-3.6 1-5.2-.3-1.6-1-3.7-2.2-6.4l-4.7-10.3-20.5 9.2 2.5 5.4c1.1 2.6 2.3 4.1 3.6 4.6 1.3.6 3.5.2 6.6-1l1.8 4-19.3 8.6-1.8-4c2.2-1.1 3.6-2.1 4.4-3 .8-.8 1.2-1.7 1.2-2.8 0-1.1-.5-2.6-1.4-4.4l-2.3-5.3-17.3 7.7c-2.3 1.1-3.8 2.3-4.5 3.8-.7 1.4-.3 3.8 1.3 7.3l.5 1.2-3.9 1.8-13.4-29.8 4-1.8c1.6 3.6 3.1 5.6 4.6 6.2 1.5.5 3.5.2 6-.9l36.4-16.3c1.6-.8 2.9-1.5 3.6-2.3.8-.7 1.2-1.8 1.2-3.3 0-1.4-.6-3.4-1.7-5.8l4-1.8 21.2 47.5L920 358zM913 447.1l-17.1 3.4-10.3-46 3.5-.9c.7 3.2 1.7 5.2 2.8 5.9 1 .7 2.8.8 5 .3l32.5-7.2a11 11 0 003.3-1.2c.8-.5 1.3-1.3 1.5-2.5.3-1.2.1-3-.4-5.2l3.5-.8 9.6 43-13.3 3.6-.8-3.5c2.8-1.5 4.7-2.8 5.8-4.2 1-1.3 1.6-2.6 1.6-4 0-1.3-.3-3.3-.9-5.8l-2.1-9.7-18.3 4 1.2 5.3c.4 1.8.9 3.1 1.4 4 .5.8 1.2 1.2 2.2 1.4 1 .2 2.4 0 4.4-.2l.8 3.7-17.2 3.8-.8-3.5c1.9-.6 3.2-1.1 4-1.7.8-.6 1.3-1.4 1.4-2.4.1-.9 0-2.3-.4-4l-1.2-5.4-12.2 2.7-4.4 1.1a5 5 0 00-2.2 1.4c-.5.5-.8 1.4-.8 2.4 0 1.1 0 2.6.5 4.4l1 4.2a19 19 0 001.7 4.8 10 10 0 004.5 4c2.2 1 5.3 1.5 9.4 1.2l.8 3.6zM927 509.7c-3.9.3-7.4-.1-10.5-1.2a23.9 23.9 0 01-13.2-10.7c-2.5-4.8-4-10.7-4.6-17.9l-1.7-24 3.6-.4c.1 2.3.4 4 1 5 .5 1.2 1.2 1.9 2 2.2 1 .3 2.2.3 3.8.2l33.3-2.4c2.3-.1 3.9-.7 4.7-1.7.9-1 1.2-3.2 1-6.6l3.6-.2 1 11.3a486.8 486.8 0 001 9.6c.2 4.3.3 8 0 11-.2 3.1-.8 6-1.6 8.5a25 25 0 01-15.6 15.6c-2.5 1-5.1 1.5-7.9 1.7zm-.7-12.6c5.4-.4 10-1.8 13.5-4.1a16.9 16.9 0 008-14.2c0-1.7-.1-4.3-.4-7.5l-37.1 2.7c-2.1.1-3.7.3-4.6.6-1 .3-1.7 1-2.1 2a11 11 0 00-.4 4.8c.4 6.3 3 10.6 7.6 12.9 4.6 2.3 9.7 3.2 15.5 2.8zM945.4 578c.2-2.3 0-4-.4-5.1-.5-1.1-1.2-1.8-2.2-2.1-1-.3-2.5-.6-4.6-.8l-19.5-1.6a65 65 0 01-8-1 15 15 0 01-5.3-2.5 15.6 15.6 0 01-6.7-8.9 29 29 0 01.5-17.7 23 23 0 013.7-7c1.6-2 3.7-3.5 6.1-4.4a21.3 21.3 0 017.8-1.4c1.2 0 2.7 0 4.6.2l22 1.8c2.3.2 3.9-.1 5-1 1-.7 1.6-2.8 1.8-6l3.6.2-2.2 26.6-3.6-.3c.2-2.2.1-4-.3-5-.3-1.2-1-2-1.7-2.4-.8-.4-2-.7-3.6-.8l-22-1.9c-2.2-.2-4.2-.2-6-.2-1.7.1-3.2.3-4.5.7-2.2.7-4 2-5.4 4-1.4 2-2.3 4.3-2.5 6.9-.2 2.7.2 5.3 1.4 7.8a11 11 0 004.8 5.3c1.6.9 3.2 1.5 5 1.9 1.8.3 3.9.6 6.3.8l19 1.6c1.7.2 3 .2 3.9.2.8 0 1.6-.3 2.2-.7a4 4 0 001.6-2.2c.4-1 .7-2.5.8-4.4l3.6.3-1.6 19.4-3.6-.3zM883.8 628l.8-3.5c2.3 0 4.5-.4 6.5-1.2a31 31 0 01-3.6-7.9 26.4 26.4 0 0133-30 28.8 28.8 0 0117.2 11.9 26.3 26.3 0 013.3 21.2c-1.6 6.4-5 11.2-10.2 14.4 1 .8 2.4 1.7 4.4 2.8l-.9 3.4-19-4 .8-3.6c3.4 0 6.5-.4 9.5-1.5 2.9-1.2 5.3-2.7 7.2-4.8 1.9-2 3.2-4.3 3.8-7 .7-2.8.5-5.6-.5-8.3-1-2.7-3-5-6-7.1-2.8-2.1-6.7-3.8-11.6-5a37.2 37.2 0 00-12.1-1.1c-3.4.3-6 1-8 2.3a13.7 13.7 0 00-6.4 8.4c-.8 3.1-.6 6.1.4 9a24.1 24.1 0 0011.6 12.7l-.8 3.6-19.4-4.7zM861.3 683.2l9.4-23.2 3.3 1.4a17 17 0 00-1.3 4.4c0 1 .4 1.8 1.4 2.2.8.3 1.6.4 2.4.5h6.8l6.4-16-2.6-2.4a13.8 13.8 0 00-3.5-2.6c-1.4-.6-2.6-.4-3.4.6a13 13 0 00-2.2 3.6l-3.3-1.3 6.8-16.9 3.4 1.4a7.7 7.7 0 00-.7 3.7c.2 1.1.7 2.4 1.8 3.9 1 1.4 2.7 3.1 4.9 5.2l31.2 29.2-1.4 3.5-44.3-.7a73 73 0 00-6.4.2c-1.2 0-2.2.5-3 1.2-1 .7-1.7 1.8-2.4 3.4l-3.3-1.3zm26-14.6l19.9.3-14.5-13.5-5.4 13.2zM866 750.1l2-3.2c3 1.4 5.4 2 7.3 1.9a7 7 0 004.3-1.6c1-1 1.9-2.1 2.7-3.6l3.4-5.8-33.4-19.6c-1.3-.8-2.4-1.3-3.3-1.4-1-.2-1.8 0-2.8.8-1 .8-2 2.1-3.2 4l-3-1.8 13.4-22.9 3 1.8c-1.6 2.8-2.2 4.9-1.9 6.2.3 1.2 1.5 2.5 3.5 3.6l33.4 19.7 2.8-4.8a24 24 0 002.4-5c.4-1.5.2-3-.6-4.8a14 14 0 00-5.3-5.4l2-3.2 12.9 7.7-26.6 45-13-7.6zM814.6 755l16.2-21.4 2.8 2.1a15.3 15.3 0 00-2.5 4.5c-.3 1.1-.3 2.1.2 3a10 10 0 002.6 2.5l26.7 20c1.8 1.4 3.4 2 4.7 1.8 1.3-.2 3-1.7 5-4.3l2.8 2.1-16 21.5-3-2.1c1.4-1.8 2.2-3.3 2.6-4.5.3-1.2.2-2.2-.2-3a9.9 9.9 0 00-2.6-2.6l-26.7-20a10 10 0 00-3.1-1.6c-1-.3-1.9-.1-3 .5-1 .6-2.2 1.9-3.6 3.7l-2.9-2.1zM790 820.8c-3.5-3.4-6-7.3-7.4-11.9a25.6 25.6 0 01-.2-14.3c1.3-5 4-9.7 8.3-14.1 3.4-3.6 7-6.2 10.9-7.9a25.6 25.6 0 0121.2.2 28.6 28.6 0 0115.6 17.1c1.4 4.5 1.6 9.3.3 14.2-1.2 5-4 9.8-8.3 14.2-4 4-8 7-12 8.5a25 25 0 01-21.1-1 29.9 29.9 0 01-7.3-5zm8.8-9a45 45 0 006.7 5.3c2.2 1.5 4.6 2.5 7 3 2.4.6 4.9.6 7.3-.2 2.5-.7 4.8-2.2 7-4.6 3.2-3.2 4.8-6.5 5-9.8 0-3.4-.7-6.5-2.5-9.5a42.2 42.2 0 00-12.2-13c-2-1.5-4.1-2.6-6.7-3.6-2.5-1-5.3-1.1-8.1-.6-3 .6-5.7 2.2-8.3 5a15 15 0 00-4.5 8.4c-.4 3 0 5.6 1 8.2 1.1 2.5 2.4 4.7 3.9 6.5l4.4 4.9zM749.7 880.3a14 14 0 003.9-3.9c.5-1 .6-2 .3-3-.4-1-1.3-2.3-2.6-4.1l-25.1-33.7 2.9-2.1 52.4 12.3-17.5-23.4c-1.3-1.8-2.4-3-3.2-3.6-.8-.7-1.8-.9-3-.6-1.2.2-2.9 1-4.9 2.6l-2.1-3 15.8-11.7 2.1 3a12 12 0 00-3.6 3.6c-.5 1-.6 2-.2 3 .4 1 1.3 2.3 2.6 4.1l16.2 21.7 3 3.8c.8.8 1.6 1.4 2.4 1.8.9.4 1.8.5 3 .3 1-.2 2.4-.7 4-1.6l2 2.9-12.3 9.2-45.5-10.6 14.5 19.4c1.1 1.6 2.2 2.7 3 3.4.9.7 1.9 1 3 .8 1.3-.2 2.8-1 4.7-2.4l2.2 2.9-15.9 11.8-2.1-3z"/>
      <g>
        <path d="M0 480.7c2.4-1 5.8-3.5 7-2.6 9 5.5 18.3 10.8 25.8 18 3.5 3.2 3.7 10.3 4.4 15.8.1 1.2-4.9 4.8-6 4.2C19.5 509.9 5 506.8 0 491.6v-11zM1024 541.7c-1.6 5.3-5 6.1-9.5 3.8-6-3.1-12-6.3-17.8-9.6-8.8-5-11.3-13-10.4-22.4.6-5.5 3-7.5 8.4-4.8 12.2 6.3 24.6 12.3 29.3 26.8v6.2zM1024 513.6c-15.9 1.9-37-12.5-38.5-26.6-.3-3 .4-7 2.3-9 1.2-1.3 5.8 0 8.4 1.1 11.4 4.6 22 10.2 27.8 22v12.5zM494.8 1024c-.6-2-2.2-4.3-1.5-5.7 5-11 8.7-23.1 20.5-29.4 1.8-1 3.8-2 5.8-2.1 3.5 0 7 .6 10.5 1-.5 3.4-.1 7.3-1.6 10.2-4.8 9.8-8.1 21.1-19.6 26h-14.1zM0 512c1.7-.6 3.7-2.1 5-1.6 11.7 4.5 24.3 8 31 20.4.9 1.8 1.8 3.8 1.8 5.8 0 3.2-.6 6.5-1 9.7-3.2-.4-6.7 0-9.5-1.3C17 540.5 5.6 537.3 0 526v-14zM494.8 0c.7 1.6 2.3 3.6 1.8 4.8-4.5 12.6-7.3 26.4-21.1 32.8-3 1.4-6.6 2.4-9.7 1.9-2-.3-5.3-4.5-4.8-5.6 5.4-12.7 6.8-28.3 22.8-33.9h11zM529.2 0c.5.6 1.1 1.2 1.3 2 3.3 14.8-17 37.4-31.9 35.7-5.5-.6-7-3.6-4.9-8C499.5 18 504.5 5.4 518.3 0h11zM529.2 1024c-.7-2.1-2.5-4.6-2-6.2 3.6-9 7-18 11.8-26.2 4.4-7.2 12.6-7.7 20.4-6.8 4.6.6 4.2 3.8 3 7.1-5.1 12.8-9.8 25.9-23.8 32.1h-9.4zM720.2 82.9c-3-.2-4.3 0-5-.4-4.5-2.3-9-4.9-13.3-7.3 2.9-3.3 5.2-7.5 8.7-9.8 6.3-4.3 13.3-7.8 20.1-11.1 2-1 4.9-1.2 6.9-.5 4.2 1.5 8 3.9 12 6-2.4 3.2-4.5 6.9-7.5 9.7a71.2 71.2 0 01-12.3 9.5c-3.4 2-7.5 3-9.6 3.9M65.7 724c-9.3 0-20-.6-25.6-12.4-4.2-9-2.5-12.2 7.3-11.5 7 .6 14.3.4 20.7 3 5.6 2.1 11 6.7 14.7 11.6 4.5 6 2.1 9.7-5.4 10-3.3 0-6.7-.4-11.7-.7M64 354.3c-.5 1.8-.8 4.4-1.7 6.8-1.8 5.2-5.2 6.7-9.3 2.6a194.1 194.1 0 01-16.4-17.8C31 338.7 32 330.6 36 323c1-1.7 5.8-3.4 6.5-2.8 9.6 9.4 20.8 18 21.3 34M348 996.2c-1.8-.3-3.8 0-5.3-.8-3.2-1.6-6-3.6-9-5.5 1.8-2.8 3.2-5.8 5.4-8.2 3.8-4 7.5-8.1 12.1-11 4.5-2.8 9.9-5.1 15-5.5 4.2-.4 8.7 2.3 13 3.7-2 3.7-3.4 7.7-5.8 11a46.2 46.2 0 01-10 9.8c-4.4 3.2-9.7 5.3-14.5 7.9l-.9-1.4M567.1 1021.5c-6.8.2-9.1-2-7.6-6.7 2.5-8 5-16 8.4-23.5 3.8-8.3 11.7-10.8 20.2-10.6 1.8 0 5.3 3.7 5 4.8-3.4 11.3-5.3 23.7-15.8 31.3-3.5 2.5-7.9 3.7-10.2 4.7M827 150.2c-4.4-1-7.5-.7-9.4-2.1-4-3-7.4-6.8-11.1-10.3 3.5-2.5 6.7-5.7 10.6-7.5a49 49 0 0116.2-5.3c5.5-.4 11.3 1 16.6 2.8 2.6 1 5.9 4.6 6 7 0 2.1-3.8 5-6.6 6.3-7.7 3.6-15.7 6.5-22.3 9M285 73.5c-.6-10.4.4-21.3 13-27 7.8-3.5 10.7-1.8 10.4 6.8-.3 6.7-.5 13.5-1.6 20.1a22.8 22.8 0 01-13 17.4c-5.7 2.7-8.3 1.2-8.8-5.1-.2-3.6 0-7.3 0-12.2M565.7 41.8c-4-1.6-9-2-10.5-4.6-1.1-2.1 1.5-7 3.4-10a91.7 91.7 0 0111.5-14.8 22.8 22.8 0 0120.8-6.5c3.9.6 7 2.7 4.3 6.8a204.5 204.5 0 01-17.3 24c-2.6 2.8-7.8 3.3-12.2 5M981.1 581.1c.5-2.8.3-6.1 1.8-8.2 1.2-1.8 5.7-3.8 6.7-3 7.5 5.4 14.7 11.4 21.5 17.7a13 13 0 013.7 8.4c.2 4.9-1 9.8-1.8 14.7-3.9-1.5-8-2.7-11.7-4.7-4-2.3-8.3-4.8-11.3-8.2-4-4.6-7-10.2-10.4-15.4l1.5-1.3M849.1 171.3c-3.6-1.2-7.1-1.4-9.3-3.3-3.7-3.2-6.6-7.4-9.9-11.2 3.6-2.1 7-4.7 11-6.3 4.8-1.9 9.9-4 14.9-4.1 5.7-.1 11.8 1.3 17.2 3.4 2.9 1.1 4.6 5.1 6.9 7.8-2.7 2.1-5.1 5-8.2 6.2-7.4 3-15.2 5.1-22.6 7.5M1009.4 634.3c-.8 1.9-1.4 6.6-3.9 7.8-2 1-6.4-1.5-9.2-3.4-4.5-3-8.7-6.6-12.8-10.2-7.5-6.8-9.9-16-6-24.8 1-2 5.8-4.4 6.6-3.8 10.3 7.7 22.2 14.3 24.6 28.8l.7 5.6M441.2 1019.7c-4.6-1-7.7-1-10-2.4-1.5-.8-3.2-4.3-2.6-5.3 6.2-10.1 11.5-21.2 23.3-26.5 1.1-.5 2.5-1.1 3.7-1 4.5.3 9 1 13.4 1.5-1.3 4-1.9 8.3-4 11.8a69.4 69.4 0 01-11.5 15.6c-3.5 3.3-8.9 4.7-12.3 6.3M715.3 961.8c-.6-10.7 0-22 13.1-27.8 7.8-3.5 10.6-1.8 10.3 6.9-.2 6.2-.4 12.5-1.3 18.6a24 24 0 01-12.8 18.6c-6 3.3-8.8 1.8-9.2-5-.2-3.3 0-6.7 0-11.3M983.5 549.8c1.7-4.4 2-9.3 4.4-10.5 2.2-1.1 6.8 1 9.7 2.7 5.8 3.8 12.5 7.4 16.4 12.8a47 47 0 016.2 19.3c.6 3.6-2.6 6.9-6.7 4.4-8-4.7-16.3-9.4-23.3-15.4-3.5-3-4.6-8.8-6.7-13.3M762.3 69c1 0 2.3-.4 3.1 0 4.3 2.2 8.4 4.5 12.6 6.8-2.6 3.1-5 6.8-8 9.3-4.5 3.6-9.4 6.7-14.4 9.4-8.4 4.7-16.3 2.4-23.2-3-1.5-1.1-2.4-6.2-1.5-6.9 9.5-7 18.5-15.4 31.4-15.6M75 323.6c-.2 1.2 0 3.3-.8 4.8-1.6 3-3.8 5.8-5.7 8.7-2.7-1.9-5.7-3.3-7.9-5.6-4-4.4-8-9-11.4-14-5.3-7.4-5.3-18 .1-24.7 1.3-1.6 6-2.8 6.8-2 8.4 9.4 18.3 18.2 18.9 32.8M106 806.5c-10.6.1-18.8-4.8-21.6-13-.6-2 1.4-6.8 2.6-7 9.8-1.1 19.6-1.6 29.4-1.9 2.2 0 5 1 6.4 2.6 3.6 3.8 6.5 8.1 9.7 12.3-4.1 1.7-8.1 3.9-12.4 5-5 1.2-10.3 1.5-14 2M279.4 72.7c1.3 12.9.1 23.3-9.3 30.7a12.8 12.8 0 01-9 2.8c-1.4-.2-2.5-5-2.9-7.9-.7-5.9-1-11.9-1.1-17.8-.2-9 4-15.4 11.8-19.5 7.1-3.9 9.9-2.4 10.5 5.7.2 2.6 0 5.2 0 6M947.3 775.4c-.1 1.5.1 3.3-.6 4.5-2.1 4-4.7 7.6-7 11.4-3.1-2.8-6.6-5.2-9.2-8.4a85 85 0 01-8.2-13.1 21 21 0 013-24.5c1.5-1.4 6.6-2 7.3-1 6.6 9.4 14.3 18.6 14.7 31.1M47.5 416.6c-.8 1.6-1.6 6.2-4.3 7.9-1.6 1-6.4-1.9-9.1-3.8-5-3.7-9.9-7.8-14.3-12.1-6.8-6.7-7.2-14.9-3.9-23.2.7-1.8 5.2-4 6-3.4 10.5 7.5 22.2 14.2 25 28.5.3 1.3.3 2.6.6 6.1M990 692.6c-.4 1.8-.5 4.2-1.2 6.4-2 6.7-5.6 7.8-10.7 2.8a192 192 0 01-14.8-16.1c-6-7.4-5.2-15.6-1.2-23.5.9-1.8 5.7-3.7 6.3-3 9.8 9.1 21 17.5 21.5 33.4M628.6 51.8c-1.6-.2-3 0-4.1-.6-3.2-1.4-6.3-3-9.5-4.6 1.6-3 2.6-6.6 4.8-9.2a91 91 0 0113.1-13.2c6.5-5 14.2-7 22-3.8 2 .7 4.4 5.1 3.9 5.8-7 9.6-13.1 20.3-25 24.8-1.7.6-3.7.6-5.2.8M654.6 994.5c1-6.8 1.8-14.4 3.4-21.7a20.8 20.8 0 0118.6-15.4c1.9 0 5.7 3.2 5.5 4.3-2.2 10.5-4.4 21.2-8.2 31.3-1.4 3.6-6.6 6.5-10.7 8.4-6 2.7-8.9.3-8.6-7M341.4 58c1-5.9 1.7-13.2 3.3-20.3 2-9.2 9-13.6 17.7-15.6 4-.9 7.4.6 6.6 5-1.4 9-2.6 18.2-6 26.5-2.1 5-7.5 9.2-12.5 12-6.6 4-9.4 1.5-9-7.7M977.8 420.4c1-.9 3.7-4.2 5.4-3.8 10.7 2.7 22 4.5 30 13.3 1.3 1.4 2.8 2.8 3.2 4.4 1.1 4.4 1.7 8.9 2.4 13.3-4 0-8.3.5-12.3-.3-5.1-1-10-2.8-14.9-4.6-9-3.5-13.1-10.6-13.8-22.3M819 906.2c-.3 10-2.8 17.7-9.9 23.2-4.1 3.3-8 3.3-9.2-2.6-1.7-8.1-3.6-16.3-4.2-24.5-.7-9 4.7-15 12.1-19.3 3.9-2.2 6.8-1.1 7.7 3 1.5 7.1 2.5 14.3 3.5 20.2M819.6 882c.1-8.4 4.6-14 10.8-18.3 3.2-2.3 7.2-2.7 8.1 1.7 2 9.8 3.3 19.8 4.5 29.8.2 1.9-.6 4.4-1.8 5.8-3.5 3.8-7.5 7.2-11.2 10.7-2.1-3.8-4.8-7.5-6.2-11.6-1.9-5.9-2.9-12-4.2-18.1M227 116.6c0 10.6-2.5 18-9.4 23.5-5 4-8.1 3.1-9.6-3-1.7-7.2-3.2-14.7-4-22.2-1.1-9.3 3.8-15.9 11.4-20.6 4.4-2.7 7.5-1.9 8.5 3.6 1.3 6.9 2.4 13.8 3.2 18.7M685.5 978c.6-5.2 1-10.4 1.9-15.5A20 20 0 01704 946c2-.2 6.5 2.7 6.4 3.8-1.1 10-2.9 20-4.7 29.8a6.2 6.2 0 01-2.5 3.9c-4.9 2.9-10 5.4-15 8.1l-3.7-13.4 1-.3M126.8 808.7c10.4.3 17.5 2.6 22.8 9.3 3.4 4.2 3 7.8-2.7 9.2-8 2-16.1 4-24.3 4.8-9 1-15-4.5-19.6-11.7-2.4-3.8-1.1-6.6 3.1-7.6 7.6-1.7 15.2-3 20.7-4M985.8 354.2c-5.4-.7-10.9-1-16.3-2a20.1 20.1 0 01-17.2-17.6c-.2-2 2.8-6.3 3.9-6.2a284 284 0 0129.6 5.6 13 13 0 017 5.9c2 3.6 3 8 4.4 12l-11 3.4-.4-1.1M963.2 748c-.1 1.6.2 3.1-.4 4.2-1.8 3.8-4 7.5-6 11.2-3.1-2.3-6.7-4.3-9.3-7.2a98 98 0 01-10-14c-4.8-8-3.6-16 1.6-23.3 1.2-1.8 6.7-3 7.3-2.3 7.5 9.5 16.5 18.4 16.8 31.4M1008.3 417.8c-8.7-2.5-17.7-4.3-26.1-7.6-7.8-3.1-10.5-10.6-11-18.4 0-1.7 3.6-5.5 4.5-5.2 10.5 3.3 21.2 6.5 31 11.4 3.6 1.8 5.5 7.9 7.2 12.4 1.6 4.2-.5 7-5.6 7.4M49.2 639.3c-11-3.3-20.3-5.8-29.3-9-2.6-1-5.5-3.9-6.3-6.5-1.7-4.9-2-10.2-2.7-15.4 4.4.3 9.1-.4 13.2.9a72 72 0 0120.5 8.7c4 2.8 6.2 8.7 8 13.6.7 1.8-2 4.8-3.4 7.7M597.8 45.4c-2.6-.4-5-.7-7.2-1.3-6.8-1.8-8-4.4-3.7-9.7 5-6.3 10-12.7 16-18a20 20 0 0120.5-4.2c1.9.7 4.4 5.3 4 5.8A438.5 438.5 0 01605 43.6c-1.4 1.5-4.8 1.3-7.2 1.8M590.9 1010.9c2.9-8.9 5.1-18 9-26.5 3.3-7.3 10.8-9.4 18.4-9.5 1.7 0 5 3 4.8 4-2.4 12.5-3.9 25.6-15.2 34-2.6 2-6 3-9.1 4-5 1.5-7.6-.4-8-6M48.3 603.3c-3.5 2-6.2 4.7-8 4.3-8.8-2.3-17.5-5-25.9-8.4-3-1.2-6-4.7-7-7.8-1.6-4.7-1.5-10-2-15 4.3.4 9-.2 13 1.3a90.3 90.3 0 0121 11c3.8 2.7 5.3 8.4 9 14.6M336.7 954.8c2 .1 3.7-.2 5 .4 3 1.3 7.3 2.5 8.2 4.8.8 1.9-2 6-4 8.2-4 4.1-8.4 7.8-12.9 11.4-7.9 6.3-17.5 7.2-25.4 2-1.8-1.3-3.6-6.5-2.9-7.1 9.5-8.7 17.7-19.6 32-19.7M52.2 667.1c-5.5-1-13-2-20.3-4a20 20 0 01-14.3-18.5c0-2 3.5-6 4.6-5.7 10 2.3 20.2 4.5 29.7 8.4 3.9 1.6 6.9 7 8.8 11.3 3 6.5.6 9-8.5 8.5M1000.5 663.9c-.2 1-.6 4-1.5 6.6-1.5 4.2-4.7 5.2-7.9 2.3-6.8-6-13.8-12-19.5-19-5.1-6.5-3.8-14.5-.4-21.6.8-1.5 4.5-3 6-2.5 9.7 3.2 23.1 22.4 23.3 34.2M868.6 871c-2.7 5.3-5.3 11.7-9.1 17.2-2.9 4.2-7.1 3.6-8.9-1.4-3-8.2-6-16.6-7.5-25.2-1.4-8.4 3.3-15 10.2-19.5 1.5-1 6.6.5 7.2 2 3 8.1 5.1 16.6 8.1 26.9M279.4 928.4c1.6.3 4.2.1 6.1 1.2 3.2 1.8 6 4.3 9 6.5-2.3 2.7-4.1 5.8-6.8 7.9a120 120 0 01-15.7 10.2 20 20 0 01-23.2-3c-1.5-1.4-2.3-6.3-1.5-6.9 9.4-7.1 18.6-15.2 32-16M472.2 1024c-5.1-2-9.6-2.3-10.8-4.4-1.2-2 .7-6.3 2.2-9 2.7-5 5.7-10 9.2-14.5a24.4 24.4 0 0121-10c6 .3 8.5 2.8 5.5 8.4-3.6 6.9-7 14.2-12.1 20-4 4.3-10.3 6.6-15 9.5M180.7 164.2c-2.6 5.2-5 11.4-8.7 16.7-3 4.4-7.4 4-9.3-1.6-2.8-7.8-5.6-15.7-7.2-23.8-1.7-8.5 2.8-15 9.4-20.2 3.9-3 7-2 8.4 2.4 2.6 8.1 4.6 16.4 7.4 26.5M159.5 187.3c-2.8 5.6-5.2 11.5-8.6 16.7-2.7 4-6.5 3.5-8.5-1-3.3-7.9-6.8-15.8-9-24-2.1-8.3 1.7-15.3 8.2-20.7 3.2-2.8 6.5-2.8 8.2 1.3 3.3 8.7 6.2 17.6 9.7 27.7M933.5 267.7c-12 .2-20-4.6-23.4-13.6-1.3-3.7-1.4-7.5 3.3-7.7 9.5-.5 19.3-1.3 28.6.3 5.2 1 10.3 5.9 14 10.2 4 4.6 2 8.3-4.1 9.1-6.4.9-13 1.2-18.4 1.7M2.1 455.2c1.4-3.2 2-8 4.3-9.1 2.2-1 6.5 1.3 9.5 3 4.5 2.5 9.1 5.2 12.8 8.7 3.5 3.3 7.2 7.4 8.4 11.8 1.3 4.8-.2 10.4-.5 15.5-4.3-1.3-8.7-2.3-12.6-4.1-4.2-2-8.1-4.8-12-7.4a22.4 22.4 0 01-9.9-18.4M882.1 167.6c5 2.7 11.6 5.4 17.3 9.5 3.9 2.7 3.6 7.2-1.5 9-8.2 2.6-16.5 5-24.9 6.5-8.6 1.4-14.8-3.6-19.7-10.3-2.6-3.5-1.9-6.6 2.3-7.9 8-2.3 16-4.2 26.5-6.8M103 266.4c-.2 1.1-.2 3.2-1 4.7-2 3.7-4.5 7.1-6.8 10.7-3-2.6-6.3-4.9-8.7-8-3.4-4.5-6.4-9.5-9-14.5-4.4-8.4-2.5-16.4 3.2-23.3 1.3-1.6 6.7-2.4 7.4-1.4 6.8 9.4 14.3 18.7 14.9 31.8M970.8 324.3c-5.2-.5-10.4-.7-15.5-1.7-8.6-1.7-13.2-8-15.4-15.9-.5-1.8 1.8-6.3 2.9-6.3 11.8 0 24.5-2.1 34.4 6.1 4.1 3.5 6 9.7 8.9 14.6l-14.9 4.2-.4-1M379.5 1005.7c-3.2-.3-5.1 0-6.7-.7-2.8-1.2-6.7-2.5-7.4-4.6-.7-2 1.6-5.6 3.5-7.8 4-4.8 8.2-9.5 13-13.5a24.5 24.5 0 0122.6-5c3.8.9 6.8 3.7 3.9 7.2a259.6 259.6 0 01-21.3 22.3c-2 1.9-5.8 1.7-7.6 2M623.2 1002.7c1.7-6.6 3.2-15.6 6.3-24 2.9-8 10.1-11 18-11.5 1.9 0 5.6 3.4 5.3 4.4-2.8 10.4-5.4 21-10 30.7-1.8 3.8-8 6-12.7 8-4.3 1.9-7-.3-6.9-7.6M119.4 238.1c-.2 2 .2 4.5-.7 6.2-2.2 3.9-5 7.4-7.6 11.1-3-2.9-6.4-5.4-8.7-8.7-3-4.2-5.3-9-7.4-13.7-3.9-8.5-2.2-18.7 4.5-24.3 1.6-1.3 7-1.4 7.5-.4 5.2 9.4 9.7 19.1 14.3 28.8l-2 1M893.2 216.8c-9 0-15-4.6-19.1-11.7-1-1.8.3-7 1.5-7.3 10.7-2.6 21.4-7 32.8-3.4 1.5.5 3.4.8 4.3 1.9 3.3 3.7 6.3 7.6 9.4 11.5-3.8 1.8-7.5 4-11.4 5.2-5.7 1.7-11.7 2.6-17.5 3.8M289.5 971.5c-1.2-.2-4-.2-6.2-1.3-3.3-1.8-6.1-4.5-9.1-6.8 2.2-2.7 4.3-5.6 6.8-8 2.9-2.6 5.9-5.4 9.4-7 5.8-2.4 12-5.2 18.2-5.4 4.5-.1 9 3.7 13.6 5.7-2.6 3.3-4.7 7.3-8 9.8-7 5.6-13.1 13-24.7 13M163.5 880.4c-3.7-1.3-7.1-1.6-9.4-3.4-3.7-3-6.7-7-10-10.5 3.8-2.3 7.3-5 11.3-6.9 3.7-1.7 7.8-3.3 11.8-3.7 5-.5 10.8-1 15.3.8 4.5 1.9 7.9 6.6 11.8 10-3.8 2.4-7.2 5.5-11.3 7.1-6.4 2.7-13.2 4.5-19.5 6.6M765.6 933c1 11.8-.3 21.7-9.2 28.7-2.4 2-6.3 3.5-9 3-1.6-.3-3-5-3.2-7.9-.7-6.2-.5-12.5-.7-18.7-.3-8.9 4.1-14.8 11.5-18.9 7.2-4 10.2-2.3 10.6 5.6.2 3.1 0 6.3 0 8.2M198.6 874.3c5.9 2.7 11.5 4.6 16.3 7.8 4.2 2.7 4 6.7-1 9-7 3.2-14.1 6.6-21.5 9-8.9 3-16.4-.4-22.6-6.9-2.8-2.9-3.6-6.4.7-8.2 9-3.9 18.3-7 28-10.7M770 923.4c-.7-10 3.8-17 12.4-21.6 4.8-2.6 8.2-2 8.6 4.1.6 8.3 2.1 16.7 1 24.8a32.6 32.6 0 01-9 15.7c-5 5.4-9.5 3.5-10.7-3.7-1-6.4-1.5-12.9-2.3-19.3M87.9 294.4c-.1 1.4.2 3.2-.5 4.4-1.9 3.5-4.2 6.7-6.3 10-3-2.2-6.3-4-8.7-6.8-3.5-4-6.7-8.6-9.6-13.2-5-7.9-4.6-18.4 1.2-24.7 1.5-1.6 6.8-2.6 7.5-1.7 7.3 9.6 16.4 18.4 16.4 32M534.3 39.3c-3.8-1.5-8.1-2-9.9-4.4-1.1-1.6 1-6.2 2.5-8.9 3.5-5.8 6.5-12.5 11.6-16.4 5.4-4.1 12.8-6 19.6-7.7 3.5-.8 7.3 2.2 5 6.3A178 178 0 01547 33.7c-2.5 3.1-8.2 3.7-12.6 5.6M910 824.8c0 1.8.4 4-.4 5.4-2.8 4.7-6 9-9.1 13.6-2.8-3.4-6-6.6-8.2-10.4A78.2 78.2 0 01886 820c-3.3-9-.8-18.7 6.4-23.9 1.7-1.2 6.9-.8 7.4.4 4.4 9 8 18.3 11.8 27.6l-1.6.7M37.9 670c4 .8 12.2.8 18.6 4 6 3 11.1 9 15 14.7 2.9 4.3 0 8.2-5.7 7.7-8-.7-16-1.5-24-3.1-7.4-1.6-11.7-7.1-14.1-14.2-2.5-7.5-1-9.5 10.2-9M42.6 446.8c-1 2.3-1.5 6.8-3.7 7.8-2.1 1-6.3-1-9-2.6-5-3.1-9.9-6.7-14.5-10.5a20.4 20.4 0 01-6.6-23.8c.8-2 5.6-4.5 6.5-3.9 10 6.8 21.6 12.2 25.6 25.1.6 2.2 1 4.5 1.7 7.9M139.6 211.7c-2.8 6.1-4.7 11.5-7.7 16.1-2.6 4-6.5 3.6-8.6-.7-3.8-7.6-7.7-15.3-10.4-23.4-2.7-8.2.7-15.5 7.1-20.9 1.5-1.2 6.9-.8 7.4.3 4.4 9.3 8.2 18.9 12.2 28.6M706 40.3c2.7.2 4.5 0 5.8.5 3 1.4 7.2 2.7 8 5 .6 2.1-2.2 6-4.4 8.1-4.2 4.3-8.8 8.2-13.5 12a20.8 20.8 0 01-24.8 1.1c-1.7-1.2-3.5-5.8-2.9-6.4 9.4-9.2 18-20 31.8-20.3M891 848.7c-2.8 5.8-4.7 11.5-8 16.2-3 4.4-7.1 4.4-9.4-1-3.1-7.5-6.3-15-8.6-22.7a20.2 20.2 0 018.9-21.8c1.6-.9 6.4 0 6.8 1 3.8 9.1 6.8 18.5 10.3 28.3M456.3 1.2c8.2 1.6 9.6 3.1 7.2 10-2.4 6.9-4.9 13.8-8.3 20.1a23.2 23.2 0 01-18.8 12.4c-4.2.5-7.2-1.5-5.8-5.7 3-9.3 5.7-19 10.6-27.3 2.8-4.6 10-6.4 15-9.5M370 51.4c2-8.5 3.5-17.3 6.4-25.6 2.9-8.3 10.2-11.6 18.5-12 1.8-.1 5.6 3.4 5.3 4.4-2.7 10.2-5.2 20.7-9.8 30-2 4.2-8.3 6.7-13.2 8.8-4.4 2-6.8-.7-7.3-5.6M150.8 831.8c8 .8 14.5 3.4 19.5 9.4 3.2 3.7 2.6 7-2 8.5-8 2.6-16.3 5.2-24.8 6.6-8.5 1.4-14.9-3.4-19.7-10.1-2.5-3.6-2.2-6.8 2.1-8 8.2-2.4 16.6-4.3 24.9-6.4M1.3 548.5c-.1-3 .5-7.6 5.6-5.5 9.7 4 19 9.3 28.2 14.3 1.6.9 3.2 3 3.6 4.9.9 4.6 1 9.4 1.6 14.1-4.1-.3-8.4-.2-12.3-1.3a89.7 89.7 0 01-13.9-5.2C5.4 566 1.2 559 1.3 548.5M903.1 786.2c.2-1.5-.2-3.4.5-4.6 3-4.4 6.2-8.6 9.3-12.8 3 3.2 6.4 6.2 8.7 9.8 5.2 8.5 10 17.3 7.1 27.9-.6 2.2-1.3 4.5-2.4 6.5-4 7-7.8 7.3-11.8.2-4.7-8.5-8.7-17.4-13-26.1l1.6-.9M913 241.6c-9.6.4-15.7-4.7-20.1-12.4-2.2-3.8-1.9-7.6 3.3-8.2a274 274 0 0126.3-1.7c3 0 6.6 1 8.6 3 3.8 3.5 6.6 8 9.7 12.2-4 1.7-8 3.8-12.4 4.9-5 1.2-10.2 1.5-15.4 2.2M977.4 720.3c-.2 2.1 0 4.2-.6 5.7-1.4 3-2.9 7-5.2 7.9-2 .6-5.9-2.3-8-4.5-4.3-4.5-8.1-9.4-11.8-14.4-5.9-7.9-5.2-16.2-.3-24 1.1-1.8 6.5-3.3 7.2-2.5 8.4 9.3 18.4 18 18.7 31.8M997.5 385.3c-5.5-1-13-1.9-20.3-4-8.9-2.4-13.6-9.3-14.5-18.3-.1-1.9 3.3-6 4.3-5.9 9.6 2 19.5 3.6 28.4 7.4 4.4 1.8 7.9 7.4 10.2 12 3.3 6.7 1.2 9.1-8 8.8M224 895.2c2 .2 4.5-.2 6.1.7 4.2 2.3 8 5.2 12 7.8-3.1 3-6 6.6-9.5 9-4.3 2.8-9.1 5-14 6.8-8.9 3.7-16.8 1.2-23.6-5.1-3-2.7-4.1-6.2.1-8.3 9.2-4.5 18.7-8.4 28-12.6l.9 1.7M203 140c-.3 8-2.9 14.6-8.7 19.7-4.2 3.9-8 3.9-9.7-2.4-2-7.5-4.3-15-5.6-22.7-1.4-9 3.3-15.4 10.3-20.4 4.3-3 7.5-1.9 8.8 3 1.9 7.6 3.3 15.2 4.9 22.8M251 912.8c1.7 0 3.5-.3 4.7.3 4.2 2.3 8 5 12 7.6-2.8 3-5.3 6.4-8.6 8.8a89.5 89.5 0 01-14.1 8.2c-8.5 4-16.3 1.9-23.3-3.6-3.1-2.4-4.9-6-.9-8.3 9.5-5.7 18.3-13.1 30.2-13M812.5 102.7c6.4 2.5 11.5 3.8 15.8 6.4 4.6 2.8 4.7 6.9-.4 9.7-6.6 3.6-13.3 7.2-20.2 10-8.1 3.4-18.3 1-23.5-5.7-1.2-1.6-1-6.9 0-7.4 9.4-4.8 19.1-8.9 28.3-13M789.7 85.8c1.6.2 3.7-.1 5.2.7 3.6 2.2 7 4.8 10.4 7.3-2.6 2.8-5 6.2-8 8.4-4.4 3.3-9.2 6-14.1 8.3a20.7 20.7 0 01-24.5-4c-1.3-1.6-1.8-6.5-.9-7 9.8-6.3 19-14 32-13.7M398.5 45.7c4-11.3 7-20.9 11-30.2 1-2.5 4.2-5 7-5.7 4.5-1.3 9.4-1.3 14.2-1.8-.2 4.2.4 8.6-.7 12.5-1.9 6.4-3.7 13.4-7.7 18.4-3.7 4.7-10 7.6-15.7 10.4-1.6.7-4.8-2-8-3.6M83 758c11-1.7 21.5-.5 28.9 9 1.5 2.1 3 5.7 2.3 7.7-.7 1.8-4.3 3.2-6.9 3.5-6.4 1-13 1.3-19.4 1.6-9.5.5-15.8-4.4-20-12.3-3.2-6-1.8-8.7 5-9.4 3.3-.3 6.7 0 10 0M1023.9 474.5c-.8 6.2-3 8.7-8.7 6.6-7-2.6-14.2-5-21-8.2a19.9 19.9 0 01-11.3-21.2c.4-2 4.6-5.4 5.6-5 9.6 4.4 19.3 8.8 28 14.7 3.7 2.6 5 8.6 7.4 13.1M658.7 59.8c-1.6-.1-3.3.1-4.7-.5-3.2-1.4-7.7-2.6-8.8-5.2-.8-2 2.3-6.2 4.5-8.7 3.9-4.2 7.9-8.6 12.7-11.3 5-2.9 11-4.7 16.8-5.2 3.5-.3 7.3 3 11 4.5-1.9 3.3-3.3 6.8-5.7 9.7A56.2 56.2 0 01674 53.5c-4.4 3.2-9.6 5.2-14.5 7.8l-.8-1.5M338.1 43c-.7 4.5-.5 12.5-3.4 19.1-2.6 6-8 11.2-13.3 15.2-4.1 3.2-8.8 1.8-8.5-5 .5-7.7.8-15.6 2-23.3 1.1-8.3 7-13 14.5-15.7 6.7-2.4 9-.5 8.7 9.8M229.8 97.2c-.4-9.7 4.2-16.3 12.5-20.8 4.8-2.6 8.2-1.7 8.7 4.2.6 8.2 1.3 16.5 1 24.8-.1 3.6-1.8 8-4.3 10.6-3.1 3.3-7.7 5.2-11.7 7.7-1.4-4-3.3-7.8-4.2-11.8-1-4.8-1.3-9.8-2-14.7M410 1013.5c-3.3-.4-5.4-.4-7.4-1-7-1.6-8.3-4.7-4-10.3 4.7-5.9 9.5-11.8 15-16.9a21.2 21.2 0 0121-5c2 .6 4.6 5.5 4 6.2-6.3 8.4-13 16.7-20.2 24.3-2 2.1-6.2 2-8.4 2.7M55.6 384c-1.7 3.5-2.6 8.2-5.4 10.3-1.4 1-6.7-2-9.6-4.3-4.4-3.5-8.4-7.6-12.4-11.7-6.8-7-7-15.4-3.3-23.8.8-1.9 4.4-4.1 6.1-3.7 9.3 2.1 23.5 22.5 24.6 33.1M82.7 751.8c-13.3 1.5-24 0-29.7-12.3-3.3-7-1.8-10 5.7-9.8 8 .1 16.3-.4 23.8 1.8A31.5 31.5 0 0197 742.3c4.4 5.5 2.2 9-4.8 9.4-3.6.3-7.3 0-9.4 0M955.3 294.6c-16.3 1.5-23.9-2-28.7-12.7-3-6.7-1.5-9.4 5.7-9.4 8 .1 16.4-.5 23.9 1.7 5.6 1.7 11 6.6 14.9 11.4 4 5 1.7 8.6-4.9 9-3.6.2-7.2 0-10.9 0"/>
      </g>
      <g>
        <path d="M388.7 815.4c5.6 2 11.3 3.5 16.6 6 5 2.5 5.6 6.4.4 9.4-7 4-14.1 7.9-21.6 11-10.5 4.3-20.5 1.2-29.7-4.4-4.5-2.7-5.2-6.2-.3-9 10.7-5.9 21.3-12.2 34.6-13M288.9 247.5c-1.2-13.3 2.4-26 16-34.2 2.6-1.6 6-1.9 9.1-2.8.8 3 2.5 6 2 8.7-1.6 10.4-2.9 21.1-6.5 31-2 5.2-7.9 9.4-12.9 13-5.2 3.6-7.9 1.7-8.2-4.8v-4.7c0-1.6.2-3.1.5-6.2M499.4 873.4h-1.3l-12-3.7c2-3.5 3.4-7.5 5.9-10.5 7.8-9.4 16.2-18.4 29.2-20.5 1-.2 2.1-.8 3-.6 4.5.9 8.9 2 13.3 3-1.8 3.7-3.3 7.7-5.6 11a92.1 92.1 0 01-10.5 12.6 28.5 28.5 0 01-22 8.7M859.5 611.1c0 .4.2 1.5-.2 2.4-2.1 5.1-4.4 10.1-6.6 15.2-3.5-3.4-7.3-6.6-10.6-10.2-2.9-3.3-5.3-7-7.7-10.8-6.5-10.5-5.2-21.3-.5-32 1.8-4 5.1-6.2 8.4-2 8.3 11 16.8 22 17.2 37.4M828.9 355c-7-1.3-14.7-2.3-22.2-4.3-11.5-2.9-17.5-11.6-21.4-22-1.5-3.9-.3-7.3 4.3-6.8 14.5 1.8 29.3 3.6 39.8 15.4 2.6 2.8 4.6 6.4 6 10 2.5 5.9.6 8.2-6.5 7.8M668 828.1c1.2-6.8 2.2-14.6 4.1-22.2 3-11.3 11.4-17.9 22-21.3 1.9-.5 6.4 1.6 6.8 3.2 3.5 15.5-10.5 41.2-25 46.7-6.3 2.4-8.4 1-8-6.4M708.5 794c-1-13 2.7-25.7 16.3-33.7 2.5-1.5 6.3-3.1 8.4-2.2 1.7.8 2.8 5.3 2.5 8-1.2 9.8-1.7 20-5.3 29-2.4 6.1-9 11.1-14.5 15.5-4.5 3.6-7.8 1.2-7.9-4.6 0-3.4.3-6.8.5-12M438.4 156.2c4.6-.4 7.8 1.5 5.9 6.2-5 12.3-10.2 24.7-22 32.4-1.4.9-2.7 2-4.2 2.3-5.4.6-10.9 1-16.3 1.4 1.2-4.6 1.8-9.4 3.7-13.7A90.3 90.3 0 01415 167c5.6-7.6 14.4-9.8 23.4-10.8M250.5 297.3c0 13.7-2.7 22.4-9.7 29.5-5.2 5.3-8.5 4.7-10.3-2.2-1.8-6.8-3.4-13.7-4.6-20.6-2-12 3-21.4 11.3-29.3 4.5-4.4 8-3.4 9.6 2.7 1.8 7.8 3 15.8 3.7 20M482.4 148.1c9.1 1.4 11.3 4.3 6.5 11-6 8.4-12.2 17.1-20 23.5-5.2 4.1-13.4 4.8-20.4 6.1-3.6.7-7.5-1.9-4.8-6.2 5.8-9.2 11.4-18.9 19-26.3 4.7-4.6 13-5.5 19.7-8M824.6 688.3c-3 7-5.3 14.3-9 20.8-3.3 5.7-7 5.2-9.5-.7-3-7.5-6-15-8-22.8-3-11 1.3-20.5 8.2-28.8 3.4-4.1 7.2-3.7 9 1.3 3.3 9.5 6 19.3 9.3 30.2M585.5 866c-5.4.2-7.5-2-5.4-6.7 3.6-8 7-16.2 11.5-23.7 5.7-9.5 15.6-12.5 26-13.3 1.7 0 5.3 3.5 5.2 5.3-.9 14.5-19 35-33.1 37.8-1.5.4-3.1.5-4.2.6M433.7 829.1c4.2 1.1 8.6 1.9 12.6 3.4 6.4 2.5 6.8 5.8 1.2 10-5.6 4.3-11.3 8.4-17.3 12.2-10.5 6.5-21.3 5.3-32 .3-4.5-2-5.6-5.4-1.6-8.4 11-8.3 22-17 37-17.5M796.8 314.8c-15.2 1-28-3.3-35.9-17.2-1.4-2.5-2.5-6.2-1.6-8.4.6-1.6 5-2.6 7.6-2.2 10.2 1.6 20.7 2.6 30.2 6.2 5.5 2 10.1 7.9 13.9 13 4.1 5.6 2.2 8.4-4.8 8.6h-9.4M718.4 225.4c14.1 0 23.2 3.2 30.3 10.9 4 4.2 3 7.6-2.5 9-7.8 2-15.7 4-23.6 5-11.2 1.4-20-4-27.5-11.9-4-4.2-2.9-7.7 2.6-9 8-2 16.2-3.1 20.7-4M457.2 870.7l-17.1-6.4c3-4.4 5.7-9.3 9.5-13 10.1-10 22-16.6 37-13.4 2.8.5 5.3 2.6 8 4-1.6 2.6-2.7 5.5-4.8 7.6-4.3 4.5-8.6 9.2-13.8 12.5-5.7 3.6-12.3 5.8-18.8 8.7M321.4 234.4c3.5-12.5 5-24 10.1-33.5 3.2-6.1 11.6-9.7 18.1-13.7 3.7-2.3 7.4-.2 6.9 4-2 14.6-3.6 29.7-15.8 40.3-3.2 2.8-7.4 5-11.5 6.2-1.9.5-4.7-2-7.8-3.3M208.6 386.2c-2.9 7.2-5 13.5-8 19.4-.6 1.2-5.5 2-6.6 1-12.4-11.1-17.5-34.7-10.6-48.8 1.5-3 4.4-5.4 6.7-8.1 2.4 2.5 5.6 4.7 7 7.7 4.2 9.4 7.6 19 11.5 28.8M334.1 824.8c-7-3.6-14.4-7-21.3-11.3-1.2-.7-1.5-6.2-.2-7.3 10.7-9.8 39-11.4 50.8-3 2.4 1.7 4 4.5 5.8 6.8-2.4 1.8-4.5 4.2-7.2 5.2-8.7 3.3-17.6 6-27.9 9.6M249.2 734.2c-14.2 1.4-27-2.7-35.1-16.5-1.5-2.5-2.6-6-2-8.5.3-1.3 5-2.4 7.5-2.1 9.5 1.1 19.5 1.4 28.2 4.8 6.5 2.5 12 8.9 16.5 14.6 4 5.2 2 7.7-4.7 8h-4.7l-5.7-.3M163.3 413.1c1.6-5.4 2.7-11 5-16.1.8-1.7 5.6-3.3 7-2.4 13 8.2 21.4 35.5 15.7 49.8-3 7.5-6.2 8.3-10.6 1.7-6.7-10.2-17-18.8-17-33M856.6 393.4c-2.7 2.3-4.1 4.5-5.8 4.7-15.4 2.4-38.6-13.1-43-28.8-.8-2.6-1.5-7-.3-7.9 2.1-1.4 6.1-1.7 8.6-.7 9.7 4.2 19.9 8 28.3 14.1 5.4 4 7.9 11.7 12.2 18.6M839.3 497.3c0-1.6-.3-3.2 0-4.7.7-2.4 1.4-6.2 3-6.7 2.1-.6 6 .4 7.5 2 7.7 8.4 16 16.5 21.9 26 3 4.8 1.8 12.5 1.7 19 0 1.2-5 3.9-5.7 3.3-10.1-8.3-22.9-14.2-27-28.1-1.1-3.5-1.3-7.2-2-10.7l.6-.1M186.3 478.5l-.1 1.5-5.1 13.2c-3.5-2.4-7.1-4.7-10.3-7.4-3-2.8-5.7-6-8.6-9.1-9-10-9.6-21.5-6-33.7 1-3.8 3.7-6.7 7.3-3.2 11.2 10.7 22 21.8 22.8 38.7M201.9 621c-21 2-44.6-18.2-45-36.7 0-3.8 1.3-7.5 5.9-5.7 13.5 5.3 27.4 10.8 34.5 24.8 2.6 5.2 3 11.5 4.6 17.6M527.3 148.6c1.8.1 3.6 0 5.4.4 5 1 7.2 3.5 3.7 8-5.4 6.7-10.6 13.5-16.7 19.5-8.2 8-18.7 8.4-29.2 6.4-1.7-.3-4.2-4.2-3.8-5.7 3.4-12.9 26.6-29 40.6-28.6M399.4 171.4c-.2 18.4-14.6 39.6-28.6 43.8-2.8.8-6 .1-9 .1 0-2.7-.4-5.6.2-8.2 1.3-5.6 3.1-11 5-16.4 4.1-12.7 13.4-19.5 26-21.8 2.2-.4 4.8 1.8 6.4 2.5M592.8 193.6c-5.4-1.5-11-2.7-16.3-4.7-3.7-1.4-5.6-5-2-7.9 12.4-9.7 25-19.3 42.1-17 2.6.3 5.1 1.1 7.5 2 7 2.9 7.8 6.3 1.7 10.4-10.1 6.8-18.8 17-33 17.2M539.8 872.7c-1.5-.5-5.4-.9-6.2-2.6-.8-2 .7-5.4 2-7.7 3.4-5.9 7-11.6 11-17.1 7.2-9.8 17.7-12.3 29.1-12 4.2 0 7 2.6 4.8 6.5-7.5 13.5-15.3 27-31.6 31.8-2.5.7-5.2.6-9.1 1.1M260.7 742.4c12.4-.3 25 2.3 33.8 14.2 4.2 5.7 3 8.4-4 9.1-7.2.8-14.5 1.3-21.7 1.7-12.2.7-20.5-6-27.3-15.2-3.4-4.7-2-7.8 3.9-8.5 4.6-.5 9.3-.8 15.3-1.3M873.7 484c-.3.8-.7 4.2-2.6 5.5-1.4 1-5-.5-7-1.7-5.7-3.2-11.1-6.7-16.5-10.4-10.8-7.4-14-18.2-13-30.6.2-1.7 3.5-4.8 5-4.6 14.7 2.1 33.7 24.6 34 41.9M689.7 198.2c7 3.3 14.6 6.2 21.6 10.2 4.2 2.4 3.6 6.3-1 8.1-8 3.2-16 6.5-24.2 8.6-10.6 2.6-20-1.5-28.1-8.2-4.4-3.5-4.2-7.4 1.3-9.3 9.4-3.3 19.1-6 30.4-9.4M845.5 650.1c-2.8 7-4.7 13.2-7.6 18.9-.7 1.4-5.4 2.6-6.6 1.7-9.7-7.1-16.9-33-12.9-44.5.5-1.3.7-2.7 1.5-3.7 2.3-3 4.7-5.8 7.1-8.7 2.5 2.7 5.9 5 7.3 8.2 4.2 9.2 7.5 18.7 11.2 28.1M189.7 569.7c0 10.8-2.4 12.3-9.6 8-5.3-3.2-10.6-6.5-15.8-10-10.5-7-13.9-17.6-13.7-29.7 0-4.4 2.2-7.9 6.7-5.4 13 7.3 26 14.7 31.1 30.1 1 3 1.1 6.1 1.3 7M629.8 856c-2.5-3.3-4.7-5-4.9-6.7-1.3-16 12.3-37 27-42 3.3-1 7-.4 10.5-.5-.1 3.2.7 6.8-.5 9.6-3.7 8.8-6.9 18.2-12.6 25.7-4.3 5.7-12.1 8.9-19.5 14M230.3 699.7c-6.3-1.3-14.6-2.4-22.6-4.8-10.3-3-15.8-11.5-19.3-21-.6-1.8 1.6-6.4 3.1-6.8 15.4-3.6 40.5 9.5 46.5 24 3 7 1.6 9.2-7.7 8.6M867.4 439.7c-1.4 1-3.6 3.5-5.6 3.4-15.7-1-34.2-16.4-37.6-30.9-.6-2.7-1.1-5.8-.6-8.5.3-1.5 3-3.8 4.4-3.8 15 .5 36.3 20.2 38.8 35.4 0 .8.2 1.6.6 4.4M547.2 187l-17.5-6.9c3.4-4.3 6.3-9 10.2-12.8 9.4-9.2 20.4-15.6 34.2-13.6 3.6.5 6.8 3 10.2 4.6-2 3-3.5 6.1-5.8 8.6-3.3 3.7-6.8 7.5-11 10-6.4 4-13.4 6.8-20.3 10.2M280.6 258c.7 13.6-2 25.8-13.3 34.8-6.1 5-9.1 3.9-10.1-4-.9-6.3-1.5-12.8-1.8-19.3-.7-12.5 5.4-21.8 15.2-28.9 4.4-3.2 7.9-2.5 8.7 3.4.7 4.6.9 9.3 1.3 14M837.6 544c.4-2.4.8-6.3 1.8-10 1.3-5.1 4.9-8 8.7-3.3 7.3 9 14.7 18.1 19.6 28.4 2.7 5.6.6 13.6-.1 20.4-.2 1.3-5.3 3.6-5.8 3-10.7-10.5-24.1-19.5-24.2-38.5M227.6 344c-3.2 7-6 14.4-9.8 21.2-2.2 3.9-6.2 4.5-8.2-.5-3.4-8.4-6.9-16.9-9-25.6-2.3-10 1.9-18.9 8.1-26.6 4-5 7.6-4.6 9.7 1.3 3.4 9.5 5.9 19.2 9.2 30.2M176.2 623.6c16.1 5.4 34 9.3 40.2 29.3.8 2.5 1.3 6.3 0 7.9-1.2 1.4-5.2 1-7.7.3-6-1.4-12-3.3-17.9-5.3-12.3-4.3-18.3-13.8-21-25.9-1.2-4.8 1-6.8 6.4-6.3M184.7 527.8c0 .4 0 2.5-.4 4.5-1 4.9-4 6.2-7.9 3-6.8-5.5-13.9-11-20-17.4-7.6-8-7.8-18.4-5.7-28.6.3-1.6 5-3.8 6.7-3.2 13.5 5 27.4 26 27.3 41.7M302.3 771.9c10.3.6 19.1 3.6 26.2 11 4.6 4.8 4 7.7-2.1 9.4a211 211 0 01-23.6 4.9c-11.3 1.6-20-3.8-27.4-11.7-4-4.3-3-7.6 2.6-9 8-1.8 16.2-3 24.3-4.6M747.1 255c13.4-.5 25.5 1.9 34.3 13.1 5 6.4 3.9 9.3-3.9 10.2-7.2.8-14.5 1.5-21.8 1.6-11.8.3-20-6.3-26.6-15.3-3.4-4.8-1.5-8 4-8.7 4.7-.6 9.4-.7 14-1M651 177.5c7.4 2.8 13.6 4.8 19.2 7.7 1.3.6 2.3 5.4 1.3 6.6-10.3 12.8-35.7 17.8-50.2 10-2.5-1.2-5.8-4-6-6.1 0-2 3.3-5 5.8-6.2 10-4.3 20-8.1 29.8-12M767.8 745.2c.8 13.5-1.3 26-12.8 35.1-6.3 5-9 4-10.1-3.7-.9-6.7-1.5-13.5-1.9-20.2-.6-12.5 5.8-21.3 15.3-28.3 4.8-3.5 8-1.8 8.7 3.8.6 4.4.6 8.8.8 13.3M797.5 718c.3 11.8-2.2 21.6-10.4 29.3-4.7 4.5-7.6 3.9-9.3-2.5-2-7-3.5-14.1-4.7-21.3-2-11.5 2.6-20.9 10.8-28.7 5-4.7 8-3.9 10 2.6.5 2 1 4 1.3 6l2.3 14.5"/>
      </g>
      <path d="M512 908.5l6.7 20.7h21.7L523 941.9l6.7 20.7-17.6-12.8-17.6 12.8 6.7-20.7-17.5-12.7h21.7l6.7-20.7z"/>
    </g>
  </g>
</svg>
